# This file uses centimeters as units for non-parametric coordinates.

mtllib cajas2.mtl
g default
v 565.694083 17.662724 36.846369
v 590.611505 14.286749 58.016018
v 582.441871 0.466476 14.391306
v 607.359293 -2.909499 35.560955
v 579.075520 45.471375 25.530659
v 603.992942 42.095400 46.700309
v 595.823308 28.275127 3.075596
v 620.740731 24.899152 24.245246
vt 1.001723 0.006024
vt 0.007750 0.006024
vt 1.001723 0.999996
vt 0.007750 0.999998
vt 0.001280 -0.000037
vt 0.995253 -0.000037
vt 0.001280 0.993935
vt 0.995253 0.993937
vt -0.000530 0.000369
vt 0.993442 0.000369
vt -0.000531 0.994342
vt 0.993442 0.994343
vt 0.007341 0.002993
vt 1.001314 0.002993
vt 0.007341 0.996966
vt 1.001314 0.996967
vt 0.007341 0.002993
vt 1.001314 0.002993
vt 0.007341 0.996966
vt 1.001314 0.996967
vt 0.007341 0.002993
vt 1.001314 0.002993
vt 0.007341 0.996966
vt 1.001314 0.996967
vn -0.407103 -0.846022 0.344258
vn -0.407103 -0.846022 0.344258
vn -0.407103 -0.846022 0.344258
vn -0.407103 -0.846022 0.344258
vn 0.407103 0.846022 -0.344258
vn 0.407103 0.846022 -0.344258
vn 0.407103 0.846022 -0.344258
vn 0.407103 0.846022 -0.344258
vn -0.509518 0.523161 0.683150
vn -0.509518 0.523161 0.683150
vn -0.509518 0.523161 0.683150
vn -0.509518 0.523161 0.683150
vn 0.758062 -0.102707 0.644044
vn 0.758062 -0.102707 0.644044
vn 0.758062 -0.102707 0.644044
vn 0.758062 -0.102707 0.644044
vn 0.509518 -0.523161 -0.683150
vn 0.509518 -0.523161 -0.683150
vn 0.509518 -0.523161 -0.683150
vn 0.509518 -0.523161 -0.683150
vn -0.758062 0.102707 -0.644044
vn -0.758062 0.102707 -0.644044
vn -0.758062 0.102707 -0.644044
vn -0.758062 0.102707 -0.644044
s off
g pasted__Box008 group
usemtl pasted__Box006SG
f 1/1/1 3/3/2 4/4/3 2/2/4
f 5/5/5 6/6/6 8/8/7 7/7/8
f 1/9/9 2/10/10 6/12/11 5/11/12
f 2/13/13 4/14/14 8/16/15 6/15/16
f 4/17/17 3/18/18 7/20/19 8/19/20
f 3/21/21 1/22/22 5/24/23 7/23/24
g default
v 501.835838 0.704432 28.775040
v 512.815951 -15.592838 55.123959
v 526.720158 -11.309570 10.974382
v 537.700271 -27.606840 37.323301
v 520.292185 26.598288 37.099722
v 531.272298 10.301019 63.448641
v 545.176506 14.584286 19.299065
v 556.156619 -1.712983 45.647983
vt 1.001723 0.006024
vt 0.007750 0.006024
vt 1.001723 0.999996
vt 0.007750 0.999998
vt 0.001280 -0.000037
vt 0.995253 -0.000037
vt 0.001280 0.993935
vt 0.995253 0.993937
vt -0.000530 0.000369
vt 0.993442 0.000369
vt -0.000531 0.994342
vt 0.993442 0.994343
vt 0.007341 0.002993
vt 1.001314 0.002993
vt 0.007341 0.996966
vt 1.001314 0.996967
vt 0.007341 0.002993
vt 1.001314 0.002993
vt 0.007341 0.996966
vt 1.001314 0.996967
vt 0.007341 0.002993
vt 1.001314 0.002993
vt 0.007341 0.996966
vt 1.001314 0.996967
vn -0.561497 -0.787769 -0.253262
vn -0.561497 -0.787769 -0.253262
vn -0.561497 -0.787769 -0.253262
vn -0.561497 -0.787769 -0.253262
vn 0.561497 0.787769 0.253262
vn 0.561497 0.787769 0.253262
vn 0.561497 0.787769 0.253262
vn 0.561497 0.787769 0.253262
vn -0.757055 0.365502 0.541549
vn -0.757055 0.365502 0.541549
vn -0.757055 0.365502 0.541549
vn -0.757055 0.365502 0.541549
vn 0.334048 -0.495812 0.801613
vn 0.334048 -0.495812 0.801613
vn 0.334048 -0.495812 0.801613
vn 0.334048 -0.495812 0.801613
vn 0.757055 -0.365502 -0.541549
vn 0.757055 -0.365502 -0.541549
vn 0.757055 -0.365502 -0.541549
vn 0.757055 -0.365502 -0.541549
vn -0.334048 0.495812 -0.801613
vn -0.334048 0.495812 -0.801613
vn -0.334048 0.495812 -0.801613
vn -0.334048 0.495812 -0.801613
s off
g group pasted__Box007
usemtl pasted__Box006SG
f 9/25/25 11/27/26 12/28/27 10/26/28
f 13/29/29 14/30/30 16/32/31 15/31/32
f 9/33/33 10/34/34 14/36/35 13/35/36
f 10/37/37 12/38/38 16/40/39 14/39/40
f 12/41/41 11/42/42 15/44/43 16/43/44
f 11/45/45 9/46/46 13/48/47 15/47/48
g default
v 534.884771 32.751570 -39.239810
v 550.862000 25.370286 -11.478797
v 547.344563 5.909989 -53.547583
v 563.321792 -1.471294 -25.786569
v 560.767406 50.229422 -49.488852
v 576.744634 42.848138 -21.727838
v 573.227197 23.387841 -63.796624
v 589.204426 16.006558 -36.035611
vt 1.001723 0.006024
vt 0.007750 0.006024
vt 1.001723 0.999996
vt 0.007750 0.999998
vt 0.001280 -0.000037
vt 0.995253 -0.000037
vt 0.001280 0.993935
vt 0.995253 0.993937
vt -0.000530 0.000369
vt 0.993442 0.000369
vt -0.000531 0.994342
vt 0.993442 0.994343
vt 0.007341 0.002993
vt 1.001314 0.002993
vt 0.007341 0.996966
vt 1.001314 0.996967
vt 0.007341 0.002993
vt 1.001314 0.002993
vt 0.007341 0.996966
vt 1.001314 0.996967
vt 0.007341 0.002993
vt 1.001314 0.002993
vt 0.007341 0.996966
vt 1.001314 0.996967
vn -0.787427 -0.531729 0.311806
vn -0.787427 -0.531729 0.311806
vn -0.787427 -0.531729 0.311806
vn -0.787427 -0.531729 0.311806
vn 0.787427 0.531729 -0.311806
vn 0.787427 0.531729 -0.311806
vn 0.787427 0.531729 -0.311806
vn 0.787427 0.531729 -0.311806
vn -0.379064 0.816601 0.435285
vn -0.379064 0.816601 0.435285
vn -0.379064 0.816601 0.435285
vn -0.379064 0.816601 0.435285
vn 0.486075 -0.224561 0.844573
vn 0.486075 -0.224561 0.844573
vn 0.486075 -0.224561 0.844573
vn 0.486075 -0.224561 0.844573
vn 0.379064 -0.816601 -0.435285
vn 0.379064 -0.816601 -0.435285
vn 0.379064 -0.816601 -0.435285
vn 0.379064 -0.816601 -0.435285
vn -0.486075 0.224561 -0.844573
vn -0.486075 0.224561 -0.844573
vn -0.486075 0.224561 -0.844573
vn -0.486075 0.224561 -0.844573
s off
g group pasted__Box006
usemtl pasted__Box006SG
f 17/49/49 19/51/50 20/52/51 18/50/52
f 21/53/53 22/54/54 24/56/55 23/55/56
f 17/57/57 18/58/58 22/60/59 21/59/60
f 18/61/61 20/62/62 24/64/63 22/63/64
f 20/65/65 19/66/66 23/68/67 24/67/68
f 19/69/69 17/70/70 21/72/71 23/71/72
