# This file uses centimeters as units for non-parametric coordinates.

mtllib roca2.mtl
g default
v -4.502869 2.215816 -16.165333
v -3.924081 2.215816 -16.551697
v -4.412109 2.590256 -16.359598
v -4.049708 2.624624 -16.559578
v -4.153906 2.836896 -17.352608
v -3.716316 2.624624 -16.988398
v -4.337193 2.215816 -17.364229
v -3.641400 2.215816 -17.024441
v -5.462994 2.218157 -17.565702
v -5.388891 2.218157 -16.395834
v -5.141749 2.672223 -16.442345
v -5.326239 2.672223 -17.452745
v -4.194733 2.621588 -17.807957
v -3.897427 2.493393 -17.549395
v -3.762912 2.215816 -17.549395
v -4.163770 2.215816 -17.896389
v -4.725587 2.218157 -17.796303
v -4.725883 2.569408 -17.726677
v 0.958918 1.663782 -17.511961
v 1.378952 1.679519 -18.614492
v 1.085176 4.754430 -18.093782
v 1.328633 4.172412 -18.670565
v 0.224494 4.902629 -18.482559
v 0.614059 4.016547 -19.497236
v 0.742299 1.663782 -18.765802
v 0.874139 1.663782 -19.409077
v -0.916343 1.679519 -17.740171
v 0.129676 1.679519 -17.009180
v 0.572141 4.594264 -17.510155
v -0.108578 4.730764 -18.067051
v -0.621604 3.217907 -19.363989
v -0.079819 3.529058 -19.823040
v -0.158652 1.663782 -19.624331
v -0.900913 1.663782 -19.432404
v -1.384709 1.679519 -18.812117
v -1.237961 3.320868 -18.699051
v 3.484760 1.284454 -13.805849
v 4.135594 1.284454 -15.934864
v 3.281477 2.532928 -14.362369
v 4.088037 1.862385 -15.952253
v 1.098521 2.733132 -15.505505
v 2.828460 1.862385 -17.284027
v 1.283908 1.284454 -15.408423
v 2.786151 1.284454 -17.175940
v 0.413328 1.289330 -13.856209
v 1.928044 1.289330 -12.993774
v 2.151156 2.234718 -13.323738
v 0.738757 2.234718 -14.057295
v 0.841896 2.129295 -16.026890
v 1.433338 1.862385 -16.524818
v 1.259167 1.284454 -16.616026
v 0.713358 1.284454 -16.178314
v 0.383464 1.289330 -15.277374
v 0.617684 2.020653 -15.359943
v 3.296414 2.897210 -14.815500
v 3.735337 2.226667 -15.703338
v 2.835647 2.226667 -16.846651
v 2.227887 3.097414 -15.816042
v -0.653681 1.625022 -12.752436
v -0.235679 1.680019 -14.084126
v -0.808756 2.865637 -13.223995
v -0.346101 2.240826 -14.019341
v -2.418949 3.173768 -14.299404
v -1.099137 2.325817 -15.125002
v -2.468956 1.775025 -14.372866
v -1.119086 1.767807 -15.154308
v -3.209238 1.769807 -13.679602
v -1.525512 1.636472 -12.286996
v -1.292566 2.566531 -12.704015
v -2.834205 2.675715 -13.733501
v -3.020391 2.650119 -15.065309
v -2.263533 2.375885 -15.285681
v -2.283483 1.817874 -15.314987
v -3.162366 1.846354 -15.258981
v -3.595408 1.841136 -14.774857
v -3.260059 2.525193 -14.528882
vt 0.428333 0.508255
vt 0.642119 0.464617
vt 0.638118 0.598676
vt 0.509151 0.616754
vt 0.204434 0.547235
vt 0.337277 0.555326
vt 0.494502 0.631660
vt 0.411014 0.796907
vt 0.928110 0.806212
vt 0.816299 0.740059
vt 0.806115 0.643883
vt 0.967953 0.681863
vt 0.371576 0.173684
vt 0.589738 0.280223
vt 0.501105 0.428450
vt 0.319630 0.549592
vt 0.813689 0.444853
vt 0.806839 0.575477
vt 0.580982 0.184293
vt 0.948485 0.179030
vt 0.943045 0.341686
vt 0.621155 0.331766
vt 0.041822 0.477319
vt 0.018587 0.110514
vt 0.967660 0.834922
vt 0.984754 0.969129
vt 0.753582 0.984323
vt 0.680631 0.838842
vt 0.104390 0.997123
vt 0.008401 0.681445
vt 0.570289 0.149852
vt 0.558436 0.017238
vt 0.740825 0.021899
vt 0.742360 0.136372
vt 0.553722 0.817609
vt 0.482480 0.933044
vt 0.982633 0.443670
vt 0.992818 0.539847
vt 0.425953 0.006829
vt 0.551639 0.115627
vt 0.249796 0.038209
vt 0.987650 0.031596
vt 0.950726 0.183012
vt 0.302517 0.973781
vt 0.717907 0.586179
vt 0.920575 0.604084
vt 0.914283 0.760194
vt 0.803969 0.787669
vt 0.493022 0.674398
vt 0.473431 0.787807
vt 0.259498 0.841579
vt 0.306000 0.653003
vt 0.823567 0.924330
vt 0.706618 0.969937
vt 0.711244 0.847972
vt 0.850461 0.815033
vt 0.381595 0.388221
vt 0.487594 0.343790
vt 0.415976 0.513644
vt 0.217056 0.556374
vt 0.317952 0.840764
vt 0.502279 0.839048
vt 0.550594 0.988133
vt 0.333404 0.996235
vt 0.716026 0.275741
vt 0.735828 0.019705
vt 0.951102 0.018604
vt 0.950806 0.195415
vt 0.069695 0.466053
vt 0.083918 0.209647
vt 0.669998 0.777843
vt 0.545794 0.602010
vt 0.288941 0.562889
vt 0.466113 0.541208
vt 0.985528 0.820589
vt 0.980204 0.929413
vt 0.101506 0.830603
vt 0.049871 0.715428
vt 0.333329 0.035702
vt 0.427398 0.143485
vt 0.199429 0.017127
vt 0.846127 0.449700
vt 0.748417 0.497907
vt 0.013637 0.562688
vt 0.502489 0.015520
vt 0.778956 0.016676
vt 0.780597 0.099459
vt 0.563099 0.201029
vt 0.886809 0.549747
vt 0.735012 0.515141
vt 0.719920 0.313461
vt 0.910527 0.341191
vt 0.640014 0.991670
vt 0.544217 0.948922
vt 0.561526 0.863531
vt 0.650089 0.868329
vt 0.242644 0.130804
vt 0.508687 0.200230
vt 0.453022 0.440938
vt 0.195765 0.496807
vt 0.577364 0.537112
vt 0.573117 0.277027
vt 0.656499 0.270336
vt 0.659842 0.529230
vt 0.186571 0.512872
vt 0.435295 0.510629
vt 0.441575 0.654141
vt 0.214425 0.653785
vt 0.026268 0.360587
vt 0.033479 0.123853
vt 0.656530 0.567258
vt 0.610564 0.756926
vt 0.001627 0.792049
vt 0.354478 0.793410
vt 0.298401 0.984476
vt 0.071370 0.977140
vt 0.766738 0.890912
vt 0.728607 0.993517
vt 0.792650 0.854321
vt 0.458341 0.844041
vt 0.642427 0.751423
vt 0.747212 0.746434
vt 0.338219 0.954483
vt 0.346133 0.871132
vt 0.291715 0.013576
vt 0.367077 0.051692
vt 0.179877 0.030658
vt 0.043923 0.677298
vt 0.014159 0.571962
vt 0.988633 0.819088
vt 0.835611 0.740298
vt 0.740036 0.163476
vt 0.616443 0.257512
vt 0.981084 0.191616
vt 0.033074 0.721007
vt 0.237306 0.676581
vt 0.276238 0.648165
vt 0.501202 0.662779
vt 0.483519 0.753918
vt 0.335534 0.855512
vt 0.648270 0.548992
vt 0.698679 0.376714
vt 0.914827 0.367708
vt 0.947489 0.651940
vt 0.558597 0.993333
vt 0.430233 0.952498
vt 0.427778 0.862291
vt 0.569932 0.858421
vt 0.417322 0.191267
vt 0.330903 0.427701
vt 0.110328 0.386391
vt 0.024080 0.178104
vt 0.013594 0.871319
vt 0.237971 0.867459
vt 0.240427 0.957665
vt 0.024171 0.963553
vt 0.281954 0.465477
vt 0.635226 0.461082
vt 0.615583 0.628678
vt 0.315998 0.620256
vt 0.084013 0.030278
vt 0.437309 0.028804
vt 0.215825 0.821752
vt 0.120472 0.682533
vt 0.967964 0.867923
vt 0.651856 0.853576
vt 0.664728 0.715269
vt 0.963085 0.743641
vt 0.094870 0.672827
vt 0.013594 0.564551
vt 0.097769 0.502064
vt 0.168730 0.610037
vt 0.868346 0.282651
vt 0.687173 0.061222
vt 0.876431 0.076536
vt 0.988730 0.150924
vt 0.595238 0.229407
vt 0.492016 0.327223
vt 0.598800 0.124634
vt 0.475594 0.825721
vt 0.519035 0.739057
vn 0.507539 0.236436 0.828554
vn 0.507539 0.236436 0.828554
vn 0.507539 0.236436 0.828554
vn 0.507539 0.236436 0.828554
vn 0.164841 0.957974 0.234764
vn 0.164841 0.957974 0.234764
vn 0.164841 0.957974 0.234764
vn 0.164841 0.957974 0.234764
vn 0.660113 0.251448 -0.707831
vn 0.660113 0.251448 -0.707831
vn 0.660113 0.251448 -0.707831
vn 0.660113 0.251448 -0.707831
vn 0.000000 -1.000000 0.000000
vn 0.000000 -1.000000 0.000000
vn 0.000000 -1.000000 0.000000
vn 0.000000 -1.000000 0.000000
vn 0.812144 0.180088 0.554969
vn 0.812144 0.180088 0.554969
vn 0.812144 0.180088 0.554969
vn 0.812144 0.180088 0.554969
vn -0.918433 0.380282 0.108932
vn -0.918433 0.380282 0.108932
vn -0.918433 0.380282 0.108932
vn -0.918433 0.380282 0.108932
vn -0.002309 -0.999997 -0.000089
vn -0.002309 -0.999997 -0.000089
vn -0.002309 -0.999997 -0.000089
vn -0.002309 -0.999997 -0.000089
vn -0.162361 0.335857 0.927814
vn -0.162361 0.335857 0.927814
vn -0.162361 0.335857 0.927814
vn -0.162361 0.335857 0.927814
vn -0.054646 0.991266 0.120025
vn -0.054646 0.991266 0.120025
vn -0.054646 0.991266 0.120025
vn -0.054646 0.991266 0.120025
vn -0.169202 0.194730 -0.966153
vn -0.169202 0.194730 -0.966153
vn -0.169202 0.194730 -0.966153
vn -0.169202 0.194730 -0.966153
vn 0.630045 0.682576 -0.370315
vn 0.630045 0.682576 -0.370315
vn 0.630045 0.682576 -0.370315
vn 0.630045 0.682576 -0.370315
vn 0.911203 0.293222 -0.289360
vn 0.911203 0.293222 -0.289360
vn 0.911203 0.293222 -0.289360
vn 0.911203 0.293222 -0.289360
vn 0.000000 -1.000000 0.000000
vn 0.000000 -1.000000 0.000000
vn 0.000000 -1.000000 0.000000
vn 0.000000 -1.000000 0.000000
vn -0.002590 -0.999992 -0.003092
vn -0.002590 -0.999992 -0.003092
vn -0.002590 -0.999992 -0.003092
vn -0.002590 -0.999992 -0.003092
vn -0.323029 0.260982 -0.909693
vn -0.323029 0.260982 -0.909693
vn -0.323029 0.260982 -0.909693
vn -0.323029 0.260982 -0.909693
vn -0.106715 0.878751 -0.465197
vn -0.106716 0.878751 -0.465197
vn -0.106715 0.878751 -0.465197
vn -0.106715 0.878751 -0.465197
vn 0.932896 0.028330 0.359031
vn 0.932896 0.028330 0.359031
vn 0.932896 0.028330 0.359031
vn 0.932896 0.028330 0.359031
vn 0.403964 0.746830 -0.528260
vn 0.403964 0.746830 -0.528260
vn 0.403964 0.746830 -0.528260
vn 0.403964 0.746830 -0.528260
vn -0.454779 0.013700 -0.890499
vn -0.454779 0.013700 -0.890499
vn -0.454779 0.013700 -0.890499
vn -0.454779 0.013700 -0.890499
vn 0.024976 -0.999687 -0.001116
vn 0.024976 -0.999687 -0.001116
vn 0.024976 -0.999687 -0.001116
vn 0.024976 -0.999687 -0.001116
vn 0.797059 0.033109 -0.602993
vn 0.797059 0.033109 -0.602993
vn 0.797059 0.033109 -0.602993
vn 0.797059 0.033109 -0.602993
vn -0.570290 0.228977 0.788885
vn -0.570290 0.228977 0.788885
vn -0.570290 0.228977 0.788885
vn -0.570290 0.228977 0.788885
vn -0.009096 -0.999942 0.005786
vn -0.009096 -0.999942 0.005786
vn -0.009096 -0.999942 0.005786
vn -0.009096 -0.999942 0.005786
vn 0.621715 0.081576 0.778984
vn 0.621715 0.081576 0.778984
vn 0.621715 0.081576 0.778984
vn 0.621715 0.081576 0.778984
vn -0.012016 0.951904 0.306160
vn -0.012016 0.951904 0.306160
vn -0.012016 0.951904 0.306160
vn -0.012016 0.951904 0.306160
vn -0.746311 0.136504 -0.651449
vn -0.746311 0.136504 -0.651449
vn -0.746311 0.136504 -0.651449
vn -0.746311 0.136504 -0.651449
vn -0.489225 0.662245 -0.567530
vn -0.489225 0.662245 -0.567530
vn -0.489225 0.662245 -0.567530
vn -0.489225 0.662245 -0.567530
vn 0.311742 -0.051132 -0.948790
vn 0.311742 -0.051132 -0.948790
vn 0.311742 -0.051132 -0.948790
vn 0.311742 -0.051132 -0.948790
vn 0.000000 -1.000000 0.000000
vn 0.000000 -1.000000 0.000000
vn 0.000000 -1.000000 0.000000
vn 0.000000 -1.000000 0.000000
vn -0.007599 -0.999929 0.009230
vn -0.007599 -0.999929 0.009230
vn -0.007599 -0.999929 0.009230
vn -0.007599 -0.999929 0.009230
vn -0.789101 0.187167 0.585054
vn -0.789101 0.187167 0.585054
vn -0.789101 0.187167 0.585054
vn -0.789101 0.187167 0.585054
vn -0.604858 0.626514 -0.491556
vn -0.604858 0.626514 -0.491556
vn -0.604858 0.626514 -0.491556
vn -0.604858 0.626514 -0.491556
vn 0.919996 0.226794 0.319643
vn 0.919996 0.226794 0.319643
vn 0.919996 0.226794 0.319643
vn 0.919996 0.226794 0.319643
vn 0.485070 0.791688 -0.371398
vn 0.485070 0.791688 -0.371398
vn 0.485070 0.791688 -0.371398
vn 0.485070 0.791689 -0.371398
vn -0.577892 0.255150 -0.775203
vn -0.577893 0.255150 -0.775202
vn -0.577892 0.255150 -0.775203
vn -0.577893 0.255150 -0.775202
vn 0.000000 -1.000000 0.000000
vn 0.000000 -1.000000 0.000000
vn 0.000000 -1.000000 0.000000
vn 0.000000 -1.000000 0.000000
vn 0.700233 -0.073905 -0.710078
vn 0.700233 -0.073905 -0.710078
vn 0.700233 -0.073905 -0.710078
vn 0.700233 -0.073905 -0.710078
vn -0.446673 0.359674 0.819218
vn -0.446673 0.359674 0.819218
vn -0.446673 0.359674 0.819218
vn -0.446673 0.359674 0.819218
vn -0.001628 -0.999996 0.002454
vn -0.001628 -0.999996 0.002454
vn -0.001628 -0.999996 0.002454
vn -0.001628 -0.999996 0.002454
vn 0.514174 0.317328 0.796824
vn 0.514174 0.317328 0.796824
vn 0.514174 0.317328 0.796824
vn 0.514174 0.317328 0.796824
vn -0.081754 0.962335 0.259284
vn -0.081754 0.962335 0.259284
vn -0.081754 0.962335 0.259284
vn -0.081754 0.962335 0.259284
vn -0.923052 0.226040 -0.311256
vn -0.923052 0.226040 -0.311256
vn -0.923052 0.226040 -0.311256
vn -0.923052 0.226040 -0.311256
vn -0.337495 0.658108 -0.673046
vn -0.337495 0.658108 -0.673046
vn -0.337495 0.658108 -0.673046
vn -0.337495 0.658108 -0.673046
vn -0.410614 0.063618 -0.909587
vn -0.410614 0.063618 -0.909587
vn -0.410614 0.063618 -0.909587
vn -0.410614 0.063618 -0.909587
vn 0.000000 -1.000000 0.000000
vn 0.000000 -1.000000 0.000000
vn 0.000000 -1.000000 0.000000
vn 0.000000 -1.000000 0.000000
vn -0.005207 -0.999985 0.001427
vn -0.005207 -0.999985 0.001427
vn -0.005207 -0.999985 0.001427
vn -0.005207 -0.999985 0.001427
vn -0.946810 0.320637 0.027268
vn -0.946810 0.320637 0.027268
vn -0.946810 0.320637 0.027268
vn -0.946810 0.320637 0.027268
vn -0.833535 0.547628 -0.072960
vn -0.833535 0.547628 -0.072960
vn -0.833535 0.547628 -0.072960
vn -0.833535 0.547628 -0.072960
vn 0.869313 0.456276 0.190017
vn 0.869313 0.456276 0.190017
vn 0.869313 0.456276 0.190017
vn 0.869313 0.456276 0.190017
vn 0.539105 0.698691 -0.470316
vn 0.539105 0.698691 -0.470316
vn 0.539105 0.698691 -0.470316
vn 0.539105 0.698691 -0.470316
vn -0.338632 0.647169 -0.683008
vn -0.338632 0.647169 -0.683008
vn -0.338632 0.647169 -0.683008
vn -0.338632 0.647169 -0.683008
vn -0.215613 0.847341 0.485309
vn -0.215613 0.847341 0.485309
vn -0.215613 0.847341 0.485309
vn -0.215613 0.847341 0.485309
vn 0.922010 0.209419 0.325639
vn 0.922010 0.209419 0.325639
vn 0.922010 0.209419 0.325639
vn 0.922010 0.209419 0.325639
vn 0.424792 0.851737 -0.306751
vn 0.424792 0.851737 -0.306751
vn 0.424792 0.851737 -0.306751
vn 0.424792 0.851737 -0.306751
vn -0.132356 0.175476 -0.975546
vn -0.132356 0.175476 -0.975546
vn -0.132356 0.175476 -0.975546
vn -0.132356 0.175476 -0.975546
vn -0.035679 -0.997988 -0.052415
vn -0.035679 -0.997988 -0.052415
vn -0.035679 -0.997988 -0.052415
vn -0.035679 -0.997988 -0.052415
vn 0.798297 0.114283 -0.591321
vn 0.798297 0.114283 -0.591321
vn 0.798297 0.114283 -0.591321
vn 0.798297 0.114283 -0.591321
vn -0.539251 0.372322 0.755370
vn -0.539251 0.372322 0.755371
vn -0.539251 0.372322 0.755370
vn -0.539251 0.372322 0.755371
vn -0.038871 -0.998056 -0.048714
vn -0.038871 -0.998056 -0.048713
vn -0.038871 -0.998056 -0.048713
vn -0.038871 -0.998056 -0.048713
vn 0.515529 0.308716 0.799328
vn 0.515529 0.308716 0.799328
vn 0.515529 0.308716 0.799328
vn 0.515529 0.308716 0.799328
vn -0.198456 0.861207 0.467907
vn -0.198456 0.861207 0.467907
vn -0.198456 0.861207 0.467907
vn -0.198456 0.861207 0.467907
vn -0.790109 0.392588 -0.470747
vn -0.790109 0.392588 -0.470747
vn -0.790109 0.392588 -0.470747
vn -0.790109 0.392588 -0.470747
vn 0.112767 0.781105 -0.614133
vn 0.112767 0.781105 -0.614133
vn 0.112767 0.781105 -0.614133
vn 0.112767 0.781105 -0.614133
vn 0.138530 0.047003 -0.989242
vn 0.138530 0.047003 -0.989242
vn 0.138530 0.047003 -0.989242
vn 0.138530 0.047003 -0.989242
vn -0.035679 -0.997988 -0.052415
vn -0.035679 -0.997988 -0.052415
vn -0.035679 -0.997988 -0.052415
vn -0.035679 -0.997988 -0.052415
vn -0.040875 -0.997933 -0.049579
vn -0.040875 -0.997933 -0.049579
vn -0.040875 -0.997933 -0.049579
vn -0.040875 -0.997933 -0.049579
vn -0.867761 0.344427 0.358274
vn -0.867761 0.344427 0.358274
vn -0.867761 0.344427 0.358274
vn -0.867761 0.344427 0.358274
vn -0.621280 0.780287 0.071858
vn -0.621280 0.780287 0.071858
vn -0.621280 0.780287 0.071858
vn -0.621280 0.780287 0.071858
s off
g roca:Rock_lp_7
usemtl roca:initialShadingGroup
f 1/1/1 2/2/2 4/3/3 3/4/4
f 3/5/5 4/6/6 6/7/7 5/8/8
f 13/9/9 14/10/10 15/11/11 16/12/12
f 7/13/13 8/14/14 2/15/15 1/16/16
f 2/2/17 8/17/18 6/18/19 4/3/20
f 9/19/21 10/20/22 11/21/23 12/22/24
f 7/13/25 1/16/26 10/23/27 9/24/28
f 1/25/29 3/26/30 11/27/31 10/28/32
f 3/5/33 5/8/34 12/29/35 11/30/36
f 13/31/37 16/32/38 17/33/39 18/34/40
f 5/8/41 6/7/42 14/35/43 13/36/44
f 6/18/45 8/17/46 15/37/47 14/38/48
f 8/14/49 7/13/50 16/39/51 15/40/52
f 7/13/53 9/24/54 17/41/55 16/39/56
f 9/42/57 12/43/58 18/34/59 17/33/60
f 12/29/61 5/8/62 13/36/63 18/44/64
usemtl roca:initialShadingGroup2
f 19/45/65 20/46/66 22/47/67 21/48/68
f 21/49/69 22/50/70 24/51/71 23/52/72
f 31/53/73 32/54/74 33/55/75 34/56/76
f 25/57/77 26/58/78 20/59/79 19/60/80
f 20/61/81 26/62/82 24/63/83 22/64/84
f 27/65/85 28/66/86 29/67/87 30/68/88
f 25/57/89 19/60/90 28/69/91 27/70/92
f 19/45/93 21/48/94 29/71/95 28/72/96
f 21/49/97 23/52/98 30/73/99 29/74/100
f 31/53/101 34/56/102 35/75/103 36/76/104
f 23/52/105 24/51/106 32/77/107 31/78/108
f 24/63/109 26/62/110 33/55/111 32/54/112
f 26/58/113 25/57/114 34/79/115 33/80/116
f 25/57/117 27/70/118 35/81/119 34/79/120
f 27/65/121 30/68/122 36/82/123 35/83/124
f 30/73/125 23/52/126 31/78/127 36/84/128
usemtl roca:initialShadingGroup4
f 37/85/129 38/86/130 40/87/131 39/88/132
f 55/89/133 56/90/134 57/91/135 58/92/136
f 49/93/137 50/94/138 51/95/139 52/96/140
f 43/97/141 44/98/142 38/99/143 37/100/144
f 38/101/145 44/102/146 42/103/147 40/104/148
f 45/105/149 46/106/150 47/107/151 48/108/152
f 43/97/153 37/100/154 46/109/155 45/110/156
f 37/111/157 39/112/158 47/107/159 46/106/160
f 39/113/161 41/114/162 48/115/163 47/116/164
f 49/93/165 52/96/166 53/117/167 54/118/168
f 41/119/169 42/120/170 50/121/171 49/122/172
f 42/123/173 44/124/174 51/95/175 50/94/176
f 44/98/177 43/97/178 52/125/179 51/126/180
f 43/97/181 45/110/182 53/127/183 52/125/184
f 45/105/185 48/108/186 54/128/187 53/129/188
f 48/130/189 41/119/190 49/122/191 54/131/192
f 39/88/193 40/87/194 56/132/195 55/133/196
f 40/104/197 42/103/198 57/91/199 56/90/200
f 42/103/201 41/134/202 58/92/203 57/91/204
f 41/114/205 39/113/206 55/135/207 58/136/208
usemtl roca:initialShadingGroup6
f 59/137/209 60/138/210 62/139/211 61/140/212
f 61/141/213 62/142/214 64/143/215 63/144/216
f 71/145/217 72/146/218 73/147/219 74/148/220
f 65/149/221 66/150/222 60/151/223 59/152/224
f 60/153/225 66/154/226 64/155/227 62/156/228
f 67/157/229 68/158/230 69/159/231 70/160/232
f 65/149/233 59/152/234 68/161/235 67/162/236
f 59/137/237 61/140/238 69/163/239 68/164/240
f 61/165/241 63/166/242 70/167/243 69/168/244
f 71/169/245 74/170/246 75/171/247 76/172/248
f 63/173/249 64/174/250 72/175/251 71/176/252
f 64/155/253 66/154/254 73/147/255 72/146/256
f 66/150/257 65/149/258 74/177/259 73/178/260
f 65/149/261 67/162/262 75/179/263 74/177/264
f 67/157/265 70/160/266 76/172/267 75/171/268
f 70/167/269 63/166/270 71/180/271 76/181/272
