# This file uses centimeters as units for non-parametric coordinates.

mtllib pasto_piso.mtl
g default
v -23.080250 0.000000 23.080250
v 0.000000 0.000000 23.080250
v 23.080250 0.000000 23.080250
v -23.080250 0.000000 7.693416
v 0.000000 0.000000 7.693416
v 23.080250 0.000000 7.693416
v -23.080250 0.000000 -7.693418
v 0.000000 0.000000 -7.693418
v 23.080250 0.000000 -7.693418
v -23.080250 0.000000 -23.080250
v 0.000000 0.000000 -23.080250
v 23.080250 0.000000 -23.080250
vt 0.000000 0.000000
vt 0.500000 0.000000
vt 1.000000 0.000000
vt 0.000000 0.333333
vt 0.500000 0.333333
vt 1.000000 0.333333
vt 0.000000 0.666667
vt 0.500000 0.666667
vt 1.000000 0.666667
vt 0.000000 1.000000
vt 0.500000 1.000000
vt 1.000000 1.000000
vn 0.000000 1.000000 0.000000
vn 0.000000 1.000000 0.000000
vn 0.000000 1.000000 0.000000
vn 0.000000 1.000000 0.000000
vn 0.000000 1.000000 0.000000
vn 0.000000 1.000000 0.000000
vn 0.000000 1.000000 0.000000
vn 0.000000 1.000000 0.000000
vn 0.000000 1.000000 0.000000
vn 0.000000 1.000000 0.000000
vn 0.000000 1.000000 0.000000
vn 0.000000 1.000000 0.000000
s 1
g pPlane6
usemtl initialShadingGroup
f 1/1/1 2/2/2 5/5/3 4/4/4
f 2/2/2 3/3/5 6/6/6 5/5/3
f 4/4/4 5/5/3 8/8/7 7/7/8
f 5/5/3 6/6/6 9/9/9 8/8/7
f 7/7/8 8/8/7 11/11/10 10/10/11
f 8/8/7 9/9/9 12/12/12 11/11/10
