# WaveFront *.obj file (generated by CINEMA 4D)

v 0 2.3283851146698 -0.16826599836349
v 0 2.3283851146698 0.16826599836349
v 2.3283851146698 2.3283851146698 -0.16826599836349
v 2.3283851146698 2.3283851146698 0.16826599836349
v 2.31374502182007 2.58908128738403 -0.16826599836349
v 2.31374502182007 2.58908128738403 0.16826599836349
v 2.2700080871582 2.8464994430542 -0.16826599836349
v 2.2700080871582 2.8464994430542 0.16826599836349
v 2.19772410392761 3.0974018573761 -0.16826599836349
v 2.19772410392761 3.0974018573761 0.16826599836349
v 2.09780311584473 3.33863401412964 -0.16826599836349
v 2.09780311584473 3.33863401412964 0.16826599836349
v 1.97150003910065 3.56716108322144 -0.16826599836349
v 1.97150003910065 3.56716108322144 0.16826599836349
v 1.82040500640869 3.78010988235474 -0.16826599836349
v 1.82040500640869 3.78010988235474 0.16826599836349
v 1.6464170217514 3.97480201721191 -0.16826599836349
v 1.6464170217514 3.97480201721191 0.16826599836349
v 1.45172500610352 4.14878988265991 -0.16826599836349
v 1.45172500610352 4.14878988265991 0.16826599836349
v 1.23877596855164 4.29988479614258 -0.16826599836349
v 1.23877596855164 4.29988479614258 0.16826599836349
v 1.01024901866913 4.42618799209595 -0.16826599836349
v 1.01024901866913 4.42618799209595 0.16826599836349
v 0.76901692152023 4.52610921859741 -0.16826599836349
v 0.76901692152023 4.52610921859741 0.16826599836349
v 0.51811450719833 4.59839296340942 -0.16826599836349
v 0.51811450719833 4.59839296340942 0.16826599836349
v 0.26069641113281 4.64212989807129 -0.16826599836349
v 0.26069641113281 4.64212989807129 0.16826599836349
v 0 4.6567702293396 -0.16826599836349
v 0 4.6567702293396 0.16826599836349
v -0.26069641113281 4.64212989807129 -0.16826599836349
v -0.26069641113281 4.64212989807129 0.16826599836349
v -0.51811450719833 4.59839296340942 -0.16826599836349
v -0.51811450719833 4.59839296340942 0.16826599836349
v -0.76901692152023 4.52610921859741 -0.16826599836349
v -0.76901692152023 4.52610921859741 0.16826599836349
v -1.01024901866913 4.42618799209595 -0.16826599836349
v -1.01024901866913 4.42618799209595 0.16826599836349
v -1.23877596855164 4.29988479614258 -0.16826599836349
v -1.23877596855164 4.29988479614258 0.16826599836349
v -1.45172500610352 4.14878988265991 -0.16826599836349
v -1.45172500610352 4.14878988265991 0.16826599836349
v -1.6464170217514 3.97480201721191 -0.16826599836349
v -1.6464170217514 3.97480201721191 0.16826599836349
v -1.82040500640869 3.78010988235474 -0.16826599836349
v -1.82040500640869 3.78010988235474 0.16826599836349
v -1.97150003910065 3.56716108322144 -0.16826599836349
v -1.97150003910065 3.56716108322144 0.16826599836349
v -2.09780311584473 3.33863401412964 -0.16826599836349
v -2.09780311584473 3.33863401412964 0.16826599836349
v -2.19772410392761 3.0974018573761 -0.16826599836349
v -2.19772410392761 3.0974018573761 0.16826599836349
v -2.2700080871582 2.8464994430542 -0.16826599836349
v -2.2700080871582 2.8464994430542 0.16826599836349
v -2.31374502182007 2.58908128738403 -0.16826599836349
v -2.31374502182007 2.58908128738403 0.16826599836349
v -2.3283851146698 2.3283851146698 -0.16826599836349
v -2.3283851146698 2.3283851146698 0.16826599836349
v -2.31374502182007 2.06768870353699 -0.16826599836349
v -2.31374502182007 2.06768870353699 0.16826599836349
v -2.2700080871582 1.81027054786682 -0.16826599836349
v -2.2700080871582 1.81027054786682 0.16826599836349
v -2.19772410392761 1.55936813354492 -0.16826599836349
v -2.19772410392761 1.55936813354492 0.16826599836349
v -2.09780311584473 1.31813597679138 -0.16826599836349
v -2.09780311584473 1.31813597679138 0.16826599836349
v -1.97150003910065 1.08960902690887 -0.16826599836349
v -1.97150003910065 1.08960902690887 0.16826599836349
v -1.82040500640869 0.87665998935699 -0.16826599836349
v -1.82040500640869 0.87665998935699 0.16826599836349
v -1.6464170217514 0.68196797370911 -0.16826599836349
v -1.6464170217514 0.68196797370911 0.16826599836349
v -1.45172500610352 0.50797998905182 -0.16826599836349
v -1.45172500610352 0.50797998905182 0.16826599836349
v -1.23877596855164 0.35688498616219 -0.16826599836349
v -1.23877596855164 0.35688498616219 0.16826599836349
v -1.01024901866913 0.23058199882507 -0.16826599836349
v -1.01024901866913 0.23058199882507 0.16826599836349
v -0.76901692152023 0.13066099584103 -0.16826599836349
v -0.76901692152023 0.13066099584103 0.16826599836349
v -0.51811450719833 0.05837700143456 -0.16826599836349
v -0.51811450719833 0.05837700143456 0.16826599836349
v -0.26069641113281 0.01463999971747 -0.16826599836349
v -0.26069641113281 0.01463999971747 0.16826599836349
v 0 0 -0.16826599836349
v 0 0 0.16826599836349
v 0.26069641113281 0.01463999971747 -0.16826599836349
v 0.26069641113281 0.01463999971747 0.16826599836349
v 0.51811450719833 0.05837700143456 -0.16826599836349
v 0.51811450719833 0.05837700143456 0.16826599836349
v 0.76901692152023 0.13066099584103 -0.16826599836349
v 0.76901692152023 0.13066099584103 0.16826599836349
v 1.01024901866913 0.23058199882507 -0.16826599836349
v 1.01024901866913 0.23058199882507 0.16826599836349
v 1.23877596855164 0.35688498616219 -0.16826599836349
v 1.23877596855164 0.35688498616219 0.16826599836349
v 1.45172500610352 0.50797998905182 -0.16826599836349
v 1.45172500610352 0.50797998905182 0.16826599836349
v 1.6464170217514 0.68196797370911 -0.16826599836349
v 1.6464170217514 0.68196797370911 0.16826599836349
v 1.82040500640869 0.87665998935699 -0.16826599836349
v 1.82040500640869 0.87665998935699 0.16826599836349
v 1.97150003910065 1.08960902690887 -0.16826599836349
v 1.97150003910065 1.08960902690887 0.16826599836349
v 2.09780311584473 1.31813597679138 -0.16826599836349
v 2.09780311584473 1.31813597679138 0.16826599836349
v 2.19772410392761 1.55936813354492 -0.16826599836349
v 2.19772410392761 1.55936813354492 0.16826599836349
v 2.2700080871582 1.81027054786682 -0.16826599836349
v 2.2700080871582 1.81027054786682 0.16826599836349
v 2.31374502182007 2.06768870353699 -0.16826599836349
v 2.31374502182007 2.06768870353699 0.16826599836349
# 114 vertices

vn 0 0 -1
vn 1 0 0
vn 0.99371492862701 0.11194058507681 0
vn 0 0 1
vn 0.97493135929108 0.22250573337078 0
vn 0.94389146566391 0.33025577664375 0
vn 0.90097224712372 0.43387669324875 0
vn 0.84672302007675 0.53203397989273 0
vn 0.78183436393738 0.62348616123199 0
vn 0.70710676908493 0.70710676908493 0
vn 0.62348616123199 0.78183436393738 0
vn 0.53203397989273 0.84672302007675 0
vn 0.43387669324875 0.90097224712372 0
vn 0.33025577664375 0.94389146566391 0
vn 0.22250573337078 0.97493135929108 0
vn 0.11194058507681 0.99371492862701 0
vn 0 1 0
vn -0.11194058507681 0.99371492862701 0
vn -0.22250573337078 0.97493135929108 0
vn -0.33025577664375 0.94389146566391 0
vn -0.43387669324875 0.90097224712372 0
vn -0.53203397989273 0.84672302007675 0
vn -0.62348616123199 0.78183436393738 0
vn -0.70710676908493 0.70710676908493 0
vn -0.78183436393738 0.62348616123199 0
vn -0.84672302007675 0.53203397989273 0
vn -0.90097224712372 0.43387669324875 0
vn -0.94389146566391 0.33025577664375 0
vn -0.97493135929108 0.22250573337078 0
vn -0.99371492862701 0.11194058507681 0
vn -1 0 0
vn -0.99371492862701 -0.11194058507681 0
vn -0.97493135929108 -0.22250573337078 0
vn -0.94389146566391 -0.33025577664375 0
vn -0.90097224712372 -0.43387669324875 0
vn -0.84672302007675 -0.53203397989273 0
vn -0.78183436393738 -0.62348616123199 0
vn -0.70710676908493 -0.70710676908493 0
vn -0.62348616123199 -0.78183436393738 0
vn -0.53203397989273 -0.84672302007675 0
vn -0.43387669324875 -0.90097224712372 0
vn -0.33025577664375 -0.94389146566391 0
vn -0.22250573337078 -0.97493135929108 0
vn -0.11194058507681 -0.99371492862701 0
vn 0 -1 0
vn 0.11194058507681 -0.99371492862701 0
vn 0.22250573337078 -0.97493135929108 0
vn 0.33025577664375 -0.94389146566391 0
vn 0.43387669324875 -0.90097224712372 0
vn 0.53203397989273 -0.84672302007675 0
vn 0.62348616123199 -0.78183436393738 0
vn 0.70710676908493 -0.70710676908493 0
vn 0.78183436393738 -0.62348616123199 0
vn 0.84672302007675 -0.53203397989273 0
vn 0.90097224712372 -0.43387669324875 0
vn 0.94389146566391 -0.33025577664375 0
vn 0.97493135929108 -0.22250573337078 0
vn 0.99371492862701 -0.11194058507681 0
# 58 normals

vt 0.25024050474167 0.25024056434631 0
vt 0.00157163094264 0.2524402141571 0
vt 0.00338148698211 0.28026854991913 0
vt 0.50495117902756 0.39237177371979 0
vt 0.54089379310608 0.39237177371979 0
vt 0.54089379310608 0.3644847869873 0
vt 0.50495117902756 0.3644847869873 0
vt 0.49884429574013 0.7558628320694 0
vt 0.25024050474167 0.74975949525833 0
vt 0.49659770727158 0.78365921974182 0
vt 0.00829575490206 0.30771911144257 0
vt 0.54089379310608 0.33659768104553 0
vt 0.50495117902756 0.33659768104553 0
vt 0.49125310778618 0.81102931499481 0
vt 0.01625261083245 0.33444690704346 0
vt 0.54089379310608 0.30871057510376 0
vt 0.50495117902756 0.30871057510376 0
vt 0.48287761211395 0.83762890100479 0
vt 0.02715199999511 0.36011588573456 0
vt 0.54089379310608 0.28082358837128 0
vt 0.50495117902756 0.28082358837128 0
vt 0.47157660126686 0.86312353610992 0
vt 0.04085684940219 0.3844028711319 0
vt 0.54089379310608 0.2529364824295 0
vt 0.50495117902756 0.2529364824295 0
vt 0.45749220252037 0.88719248771667 0
vt 0.05719482898712 0.40700280666351 0
vt 0.54089379310608 0.22504949569702 0
vt 0.50495117902756 0.22504949569702 0
vt 0.44080141186714 0.90953308343887 0
vt 0.07596045732498 0.42763137817383 0
vt 0.54089379310608 0.19716238975525 0
vt 0.50495117902756 0.19716238975525 0
vt 0.4217141866684 0.92986458539963 0
vt 0.09691777825356 0.44602918624878 0
vt 0.54089379310608 0.16927540302277 0
vt 0.50495117902756 0.16927540302277 0
vt 0.40047061443329 0.94793111085892 0
vt 0.1198031976819 0.46196484565735 0
vt 0.54089379310608 0.14138829708099 0
vt 0.50495117902756 0.14138829708099 0
vt 0.37733790278435 0.96350538730621 0
vt 0.14432899653912 0.4752379655838 0
vt 0.54089379310608 0.11350131034851 0
vt 0.50495117902756 0.11350131034851 0
vt 0.35260671377182 0.97639179229736 0
vt 0.17018659412861 0.48568153381348 0
vt 0.54089379310608 0.08561432361603 0
vt 0.50495117902756 0.08561432361603 0
vt 0.32658830285072 0.98642820119858 0
vt 0.19705100357532 0.49316430091858 0
vt 0.54089379310608 0.05772721767426 0
vt 0.50495117902756 0.05772721767426 0
vt 0.29960981011391 0.99348831176758 0
vt 0.22458429634571 0.49759221076965 0
vt 0.54089379310608 0.02984023094177 0
vt 0.50495117902756 0.02984023094177 0
vt 0.27201038599014 0.99748337268829 0
vt 0.2524402141571 0.49890947341919 0
vt 0.54089379310608 0.001953125 0
vt 0.50495117902756 0.001953125 0
vt 0.24413719773293 0.99836319684982 0
vt 0.28026849031448 0.49709963798523 0
vt 0.54624211788177 0.78279042243958 0
vt 0.58218467235565 0.78279042243958 0
vt 0.58218467235565 0.7549033164978 0
vt 0.54624211788177 0.7549033164978 0
vt 0.21634079515934 0.99611669778824 0
vt 0.30771911144257 0.49218535423279 0
vt 0.58218467235565 0.72701632976532 0
vt 0.54624211788177 0.72701632976532 0
vt 0.18897069990635 0.99077212810516 0
vt 0.33444690704346 0.48422849178314 0
vt 0.58218467235565 0.69912922382355 0
vt 0.54624211788177 0.69912922382355 0
vt 0.16237109899521 0.98239660263062 0
vt 0.36011579632759 0.47332918643951 0
vt 0.58218467235565 0.67124223709106 0
vt 0.54624211788177 0.67124223709106 0
vt 0.1368764936924 0.97109550237656 0
vt 0.38440290093422 0.45962417125702 0
vt 0.58218467235565 0.64335519075394 0
vt 0.54624211788177 0.64335519075394 0
vt 0.11280749738216 0.95701110363007 0
vt 0.40700280666351 0.44328629970551 0
vt 0.58218467235565 0.61546814441681 0
vt 0.54624211788177 0.61546814441681 0
vt 0.09046687185764 0.94032031297684 0
vt 0.42763140797615 0.424520611763 0
vt 0.58218467235565 0.58758109807968 0
vt 0.54624211788177 0.58758109807968 0
vt 0.07013543695211 0.92123311758041 0
vt 0.44602918624878 0.40356338024139 0
vt 0.58218467235565 0.55969399213791 0
vt 0.54624211788177 0.55969399213791 0
vt 0.05206894129515 0.89998960494995 0
vt 0.4619647860527 0.3806779384613 0
vt 0.58218467235565 0.53180700540543 0
vt 0.54624211788177 0.53180700540543 0
vt 0.03649457171559 0.87685680389404 0
vt 0.47523790597916 0.35615217685699 0
vt 0.58218467235565 0.50391989946365 0
vt 0.54624211788177 0.50391989946365 0
vt 0.02360818907619 0.85212570428848 0
vt 0.48568150401115 0.33029437065125 0
vt 0.58218467235565 0.47603297233582 0
vt 0.54624211788177 0.47603297233582 0
vt 0.01357182022184 0.82610720396042 0
vt 0.49316430091858 0.30343008041382 0
vt 0.58218467235565 0.44814586639404 0
vt 0.54624211788177 0.44814586639404 0
vt 0.00651170685887 0.7991287112236 0
vt 0.49759221076965 0.27589678764343 0
vt 0.58218467235565 0.42025887966156 0
vt 0.54624211788177 0.42025887966156 0
vt 0.00251661497168 0.77152931690216 0
vt 0.49890941381454 0.24804091453552 0
vt 0.58218467235565 0.39237177371979 0
vt 0.54624211788177 0.39237177371979 0
vt 0.00163681095 0.74365609884262 0
vt 0.49709960818291 0.2202125787735 0
vt 0.58218467235565 0.3644847869873 0
vt 0.54624211788177 0.3644847869873 0
vt 0.00388332898729 0.7158597111702 0
vt 0.49218529462814 0.19276201725006 0
vt 0.58218467235565 0.33659768104553 0
vt 0.54624211788177 0.33659768104553 0
vt 0.00922794919461 0.68848961591721 0
vt 0.48422849178314 0.16603422164917 0
vt 0.58218467235565 0.30871057510376 0
vt 0.54624211788177 0.30871057510376 0
vt 0.017603430897 0.66189002990723 0
vt 0.47332909703255 0.14036536216736 0
vt 0.58218467235565 0.28082358837128 0
vt 0.54624211788177 0.28082358837128 0
vt 0.02890446968377 0.63639539480209 0
vt 0.45962420105934 0.11607825756073 0
vt 0.58218467235565 0.2529364824295 0
vt 0.54624211788177 0.2529364824295 0
vt 0.0429889112711 0.61232650279999 0
vt 0.44328629970551 0.09347832202911 0
vt 0.58218467235565 0.22504949569702 0
vt 0.54624211788177 0.22504949569702 0
vt 0.05967967957258 0.5899857878685 0
vt 0.424520611763 0.07284963130951 0
vt 0.58218467235565 0.19716238975525 0
vt 0.54624211788177 0.19716238975525 0
vt 0.07876686006784 0.56965440511703 0
vt 0.40356329083443 0.05445194244385 0
vt 0.58218467235565 0.16927540302277 0
vt 0.54624211788177 0.16927540302277 0
vt 0.10001040250063 0.55158793926239 0
vt 0.38067790865898 0.03851628303528 0
vt 0.58218467235565 0.14138829708099 0
vt 0.54624211788177 0.14138829708099 0
vt 0.12314320355654 0.5360135436058 0
vt 0.35615208745003 0.02524328231812 0
vt 0.58218467235565 0.11350131034851 0
vt 0.54624211788177 0.11350131034851 0
vt 0.14787429571152 0.52312713861465 0
vt 0.33029440045357 0.01479959487915 0
vt 0.58218467235565 0.08561432361603 0
vt 0.54624211788177 0.08561432361603 0
vt 0.17389279603958 0.51309072971344 0
vt 0.30343011021614 0.00731682777405 0
vt 0.58218467235565 0.05772721767426 0
vt 0.54624211788177 0.05772721767426 0
vt 0.20087130367756 0.50603061914444 0
vt 0.27589678764343 0.00288891792297 0
vt 0.58218467235565 0.02984023094177 0
vt 0.54624211788177 0.02984023094177 0
vt 0.228470697999 0.50203549861908 0
vt 0.24804089963436 0.00157165527344 0
vt 0.58218467235565 0.001953125 0
vt 0.54624211788177 0.001953125 0
vt 0.25634390115738 0.50115573406219 0
vt 0.22021259367466 0.0033814907074 0
vt 0.50495117902756 0.78279042243958 0
vt 0.54089379310608 0.78279042243958 0
vt 0.54089379310608 0.7549033164978 0
vt 0.50495117902756 0.7549033164978 0
vt 0.2841402888298 0.50340229272842 0
vt 0.1927620023489 0.00829577445984 0
vt 0.54089379310608 0.72701632976532 0
vt 0.50495117902756 0.72701632976532 0
vt 0.31151041388512 0.50874692201614 0
vt 0.16603420674801 0.01625263690948 0
vt 0.54089379310608 0.69912922382355 0
vt 0.50495117902756 0.69912922382355 0
vt 0.3381099998951 0.51712238788605 0
vt 0.14036530256271 0.0271520614624 0
vt 0.54089379310608 0.67124223709106 0
vt 0.50495117902756 0.67124223709106 0
vt 0.36360460519791 0.52842342853546 0
vt 0.11607819795609 0.04085683822632 0
vt 0.54089379310608 0.64335519075394 0
vt 0.50495117902756 0.64335519075394 0
vt 0.38767349720001 0.54250782728195 0
vt 0.09347824007273 0.05719482898712 0
vt 0.54089379310608 0.61546814441681 0
vt 0.50495117902756 0.61546814441681 0
vt 0.4100142121315 0.55919861793518 0
vt 0.07284966111183 0.07596051692963 0
vt 0.54089379310608 0.58758109807968 0
vt 0.50495117902756 0.58758109807968 0
vt 0.43034559488297 0.5782858133316 0
vt 0.05445187911391 0.09691786766052 0
vt 0.54089379310608 0.55969399213791 0
vt 0.50495117902756 0.55969399213791 0
vt 0.44841209053993 0.59952938556671 0
vt 0.03851626068354 0.11980319023132 0
vt 0.54089379310608 0.53180700540543 0
vt 0.50495117902756 0.53180700540543 0
vt 0.46398648619652 0.62266212701797 0
vt 0.02524320036173 0.14432907104492 0
vt 0.54089379310608 0.50391989946365 0
vt 0.50495117902756 0.50391989946365 0
vt 0.47687289118767 0.64739328622818 0
vt 0.01479959953576 0.17018663883209 0
vt 0.54089379310608 0.47603297233582 0
vt 0.50495117902756 0.47603297233582 0
vt 0.48690930008888 0.6734117269516 0
vt 0.00731681007892 0.19705104827881 0
vt 0.54089379310608 0.44814586639404 0
vt 0.50495117902756 0.44814586639404 0
vt 0.49396941065788 0.70039021968842 0
vt 0.00288891699165 0.22458434104919 0
vt 0.54089379310608 0.42025887966156 0
vt 0.50495117902756 0.42025887966156 0
vt 0.49796450138092 0.72798961400986 0
# 230 texture coordinates

o Bitcoin
usemtl default
f 5/3/1 3/2/1 1/1/1
f 5/7/3 6/6/3 4/5/2 3/4/2
f 6/10/4 2/9/4 4/8/4
f 7/11/1 5/3/1 1/1/1
f 7/13/5 8/12/5 6/6/3 5/7/3
f 8/14/4 2/9/4 6/10/4
f 9/15/1 7/11/1 1/1/1
f 9/17/6 10/16/6 8/12/5 7/13/5
f 10/18/4 2/9/4 8/14/4
f 11/19/1 9/15/1 1/1/1
f 11/21/7 12/20/7 10/16/6 9/17/6
f 12/22/4 2/9/4 10/18/4
f 13/23/1 11/19/1 1/1/1
f 13/25/8 14/24/8 12/20/7 11/21/7
f 14/26/4 2/9/4 12/22/4
f 15/27/1 13/23/1 1/1/1
f 15/29/9 16/28/9 14/24/8 13/25/8
f 16/30/4 2/9/4 14/26/4
f 17/31/1 15/27/1 1/1/1
f 17/33/10 18/32/10 16/28/9 15/29/9
f 18/34/4 2/9/4 16/30/4
f 19/35/1 17/31/1 1/1/1
f 19/37/11 20/36/11 18/32/10 17/33/10
f 20/38/4 2/9/4 18/34/4
f 21/39/1 19/35/1 1/1/1
f 21/41/12 22/40/12 20/36/11 19/37/11
f 22/42/4 2/9/4 20/38/4
f 23/43/1 21/39/1 1/1/1
f 23/45/13 24/44/13 22/40/12 21/41/12
f 24/46/4 2/9/4 22/42/4
f 25/47/1 23/43/1 1/1/1
f 25/49/14 26/48/14 24/44/13 23/45/13
f 26/50/4 2/9/4 24/46/4
f 27/51/1 25/47/1 1/1/1
f 27/53/15 28/52/15 26/48/14 25/49/14
f 28/54/4 2/9/4 26/50/4
f 29/55/1 27/51/1 1/1/1
f 29/57/16 30/56/16 28/52/15 27/53/15
f 30/58/4 2/9/4 28/54/4
f 31/59/1 29/55/1 1/1/1
f 31/61/17 32/60/17 30/56/16 29/57/16
f 32/62/4 2/9/4 30/58/4
f 33/63/1 31/59/1 1/1/1
f 33/67/18 34/66/18 32/65/17 31/64/17
f 34/68/4 2/9/4 32/62/4
f 35/69/1 33/63/1 1/1/1
f 35/71/19 36/70/19 34/66/18 33/67/18
f 36/72/4 2/9/4 34/68/4
f 37/73/1 35/69/1 1/1/1
f 37/75/20 38/74/20 36/70/19 35/71/19
f 38/76/4 2/9/4 36/72/4
f 39/77/1 37/73/1 1/1/1
f 39/79/21 40/78/21 38/74/20 37/75/20
f 40/80/4 2/9/4 38/76/4
f 41/81/1 39/77/1 1/1/1
f 41/83/22 42/82/22 40/78/21 39/79/21
f 42/84/4 2/9/4 40/80/4
f 43/85/1 41/81/1 1/1/1
f 43/87/23 44/86/23 42/82/22 41/83/22
f 44/88/4 2/9/4 42/84/4
f 45/89/1 43/85/1 1/1/1
f 45/91/24 46/90/24 44/86/23 43/87/23
f 46/92/4 2/9/4 44/88/4
f 47/93/1 45/89/1 1/1/1
f 47/95/25 48/94/25 46/90/24 45/91/24
f 48/96/4 2/9/4 46/92/4
f 49/97/1 47/93/1 1/1/1
f 49/99/26 50/98/26 48/94/25 47/95/25
f 50/100/4 2/9/4 48/96/4
f 51/101/1 49/97/1 1/1/1
f 51/103/27 52/102/27 50/98/26 49/99/26
f 52/104/4 2/9/4 50/100/4
f 53/105/1 51/101/1 1/1/1
f 53/107/28 54/106/28 52/102/27 51/103/27
f 54/108/4 2/9/4 52/104/4
f 55/109/1 53/105/1 1/1/1
f 55/111/29 56/110/29 54/106/28 53/107/28
f 56/112/4 2/9/4 54/108/4
f 57/113/1 55/109/1 1/1/1
f 57/115/30 58/114/30 56/110/29 55/111/29
f 58/116/4 2/9/4 56/112/4
f 59/117/1 57/113/1 1/1/1
f 59/119/31 60/118/31 58/114/30 57/115/30
f 60/120/4 2/9/4 58/116/4
f 61/121/1 59/117/1 1/1/1
f 61/123/32 62/122/32 60/118/31 59/119/31
f 62/124/4 2/9/4 60/120/4
f 63/125/1 61/121/1 1/1/1
f 63/127/33 64/126/33 62/122/32 61/123/32
f 64/128/4 2/9/4 62/124/4
f 65/129/1 63/125/1 1/1/1
f 65/131/34 66/130/34 64/126/33 63/127/33
f 66/132/4 2/9/4 64/128/4
f 67/133/1 65/129/1 1/1/1
f 67/135/35 68/134/35 66/130/34 65/131/34
f 68/136/4 2/9/4 66/132/4
f 69/137/1 67/133/1 1/1/1
f 69/139/36 70/138/36 68/134/35 67/135/35
f 70/140/4 2/9/4 68/136/4
f 71/141/1 69/137/1 1/1/1
f 71/143/37 72/142/37 70/138/36 69/139/36
f 72/144/4 2/9/4 70/140/4
f 73/145/1 71/141/1 1/1/1
f 73/147/38 74/146/38 72/142/37 71/143/37
f 74/148/4 2/9/4 72/144/4
f 75/149/1 73/145/1 1/1/1
f 75/151/39 76/150/39 74/146/38 73/147/38
f 76/152/4 2/9/4 74/148/4
f 77/153/1 75/149/1 1/1/1
f 77/155/40 78/154/40 76/150/39 75/151/39
f 78/156/4 2/9/4 76/152/4
f 79/157/1 77/153/1 1/1/1
f 79/159/41 80/158/41 78/154/40 77/155/40
f 80/160/4 2/9/4 78/156/4
f 81/161/1 79/157/1 1/1/1
f 81/163/42 82/162/42 80/158/41 79/159/41
f 82/164/4 2/9/4 80/160/4
f 83/165/1 81/161/1 1/1/1
f 83/167/43 84/166/43 82/162/42 81/163/42
f 84/168/4 2/9/4 82/164/4
f 85/169/1 83/165/1 1/1/1
f 85/171/44 86/170/44 84/166/43 83/167/43
f 86/172/4 2/9/4 84/168/4
f 87/173/1 85/169/1 1/1/1
f 87/175/45 88/174/45 86/170/44 85/171/44
f 88/176/4 2/9/4 86/172/4
f 89/177/1 87/173/1 1/1/1
f 89/181/46 90/180/46 88/179/45 87/178/45
f 90/182/4 2/9/4 88/176/4
f 91/183/1 89/177/1 1/1/1
f 91/185/47 92/184/47 90/180/46 89/181/46
f 92/186/4 2/9/4 90/182/4
f 93/187/1 91/183/1 1/1/1
f 93/189/48 94/188/48 92/184/47 91/185/47
f 94/190/4 2/9/4 92/186/4
f 95/191/1 93/187/1 1/1/1
f 95/193/49 96/192/49 94/188/48 93/189/48
f 96/194/4 2/9/4 94/190/4
f 97/195/1 95/191/1 1/1/1
f 97/197/50 98/196/50 96/192/49 95/193/49
f 98/198/4 2/9/4 96/194/4
f 99/199/1 97/195/1 1/1/1
f 99/201/51 100/200/51 98/196/50 97/197/50
f 100/202/4 2/9/4 98/198/4
f 101/203/1 99/199/1 1/1/1
f 101/205/52 102/204/52 100/200/51 99/201/51
f 102/206/4 2/9/4 100/202/4
f 103/207/1 101/203/1 1/1/1
f 103/209/53 104/208/53 102/204/52 101/205/52
f 104/210/4 2/9/4 102/206/4
f 105/211/1 103/207/1 1/1/1
f 105/213/54 106/212/54 104/208/53 103/209/53
f 106/214/4 2/9/4 104/210/4
f 107/215/1 105/211/1 1/1/1
f 107/217/55 108/216/55 106/212/54 105/213/54
f 108/218/4 2/9/4 106/214/4
f 109/219/1 107/215/1 1/1/1
f 109/221/56 110/220/56 108/216/55 107/217/55
f 110/222/4 2/9/4 108/218/4
f 111/223/1 109/219/1 1/1/1
f 111/225/57 112/224/57 110/220/56 109/221/56
f 112/226/4 2/9/4 110/222/4
f 113/227/1 111/223/1 1/1/1
f 113/229/58 114/228/58 112/224/57 111/225/57
f 114/230/4 2/9/4 112/226/4
f 3/2/1 113/227/1 1/1/1
f 3/4/2 4/5/2 114/228/58 113/229/58
f 4/8/4 2/9/4 114/230/4

