# Blender v2.91.0 OBJ File: 'level2Graficas.blend'
# www.blender.org
mtllib level2Graficas.mtl
o Cube.002_Cube.007
v 10.592813 -1.000000 2.512522
v 10.592813 1.000000 2.512522
v 10.592813 -1.000000 0.512522
v 10.592813 1.000000 0.512522
v 12.592813 -1.000000 2.512522
v 12.592813 1.000000 2.512522
v 12.592813 -1.000000 0.512522
v 12.592813 1.000000 0.512522
v 10.592813 1.000000 -3.487478
v 10.592813 -1.000000 -3.487478
v 12.592813 -1.000000 -3.487478
v 12.592813 1.000000 -3.487478
v -22.736984 1.000000 19.511673
v -22.736984 -1.000000 19.511673
v -22.736984 1.000000 21.511673
v -22.736984 -1.000000 21.511673
v -24.736984 1.000000 19.511673
v -24.736984 -1.000000 19.511673
v -24.736984 1.000000 21.511673
v -24.736984 -1.000000 21.511673
v -12.736983 1.000000 19.511673
v -12.736983 -1.000000 19.511673
v -12.736983 1.000000 21.511673
v -12.736983 -1.000000 21.511673
v -14.280009 -1.000000 21.511673
v -14.280009 1.000000 21.511673
v -14.280009 1.000000 19.511673
v -14.280009 -1.000000 19.511673
v -2.736983 1.000000 19.511673
v -2.736983 -1.000000 19.511673
v -2.736983 1.000000 21.511673
v -2.736983 -1.000000 21.511673
v -4.265918 1.000000 19.511673
v -4.265918 -1.000000 19.511673
v -4.265918 -1.000000 21.511673
v -4.265918 1.000000 21.511673
v -2.736983 1.000000 9.511673
v -2.736983 -1.000000 9.511673
v -4.265918 1.000000 9.511673
v -4.265918 -1.000000 9.511673
v -2.736983 1.000000 11.549376
v -4.265918 1.000000 11.549376
v -4.265918 -1.000000 11.549376
v -2.736983 -1.000000 11.549376
v 2.263017 1.000000 9.511673
v 2.263017 -1.000000 9.511673
v 2.263017 1.000000 11.549376
v 2.263017 -1.000000 11.549376
v 12.263017 1.000000 19.511673
v 12.263017 -1.000000 19.511673
v 12.263017 1.000000 21.511673
v 12.263017 -1.000000 21.511673
v -22.736984 -1.000000 -0.488327
v -24.736984 -1.000000 -0.488327
v -22.736984 1.000000 -0.488327
v -24.736984 1.000000 -0.488327
v -21.726772 -1.000000 17.114498
v -21.726772 1.000000 17.114498
v -21.726772 -1.000000 15.114498
v -21.726772 1.000000 15.114498
v -19.726772 -1.000000 17.114498
v -19.726772 1.000000 17.114498
v -19.726772 -1.000000 15.114498
v -19.726772 1.000000 15.114498
v -16.088982 -1.000000 15.170204
v -16.088982 1.000000 15.170204
v -16.088982 -1.000000 13.170204
v -16.088982 1.000000 13.170204
v -14.088981 -1.000000 15.170204
v -14.088981 1.000000 15.170204
v -14.088981 -1.000000 13.170204
v -14.088981 1.000000 13.170204
v -16.088982 1.000000 11.170204
v -16.088982 -1.000000 11.170204
v -14.088981 -1.000000 11.170204
v -14.088981 1.000000 11.170204
v -21.726772 -1.000000 8.439797
v -21.726772 1.000000 8.439797
v -21.726772 -1.000000 6.439798
v -21.726772 1.000000 6.439798
v -19.726772 -1.000000 8.439797
v -19.726772 1.000000 8.439797
v -19.726772 -1.000000 6.439798
v -19.726772 1.000000 6.439798
v -9.617293 -1.000000 13.407747
v -9.617293 1.000000 13.407747
v -9.617293 -1.000000 11.407747
v -9.617293 1.000000 11.407747
v -7.617293 -1.000000 13.407747
v -7.617293 1.000000 13.407747
v -7.617293 -1.000000 11.407747
v -7.617293 1.000000 11.407747
v 6.397820 -1.000000 11.504677
v 6.397820 1.000000 11.504677
v 6.397820 -1.000000 9.504677
v 6.397820 1.000000 9.504677
v 8.397820 -1.000000 11.504677
v 8.397820 1.000000 11.504677
v 8.397820 -1.000000 9.504677
v 8.397820 1.000000 9.504677
v 13.397820 1.000000 9.504677
v 13.397820 -1.000000 9.504677
v 13.397820 -1.000000 11.504677
v 13.397820 1.000000 11.504677
v 12.063260 1.000000 11.504677
v 12.063260 1.000000 9.504677
v 12.063260 -1.000000 9.504677
v 12.063260 -1.000000 11.504677
v 13.397820 1.000000 21.504677
v 13.397820 -1.000000 21.504677
v 12.063260 1.000000 21.504677
v 12.063260 -1.000000 21.504677
v 13.397820 -1.000000 19.511673
v 12.063260 -1.000000 19.511673
v 13.397820 1.000000 19.511673
v 12.063260 1.000000 19.511673
v 23.397820 1.000000 21.504677
v 23.397820 -1.000000 21.504677
v 23.397820 -1.000000 19.511673
v 23.397820 1.000000 19.511673
v 20.777340 1.000000 21.504677
v 20.777340 1.000000 19.511673
v 20.777340 -1.000000 19.511673
v 20.777340 -1.000000 21.504677
v 23.397820 1.000000 9.511673
v 23.397820 -1.000000 9.511673
v 20.777340 -1.000000 9.511673
v 20.777340 1.000000 9.511673
v 23.397820 1.000000 -0.488327
v 23.397820 -1.000000 -0.488327
v 20.777340 -1.000000 -0.488327
v 20.777340 1.000000 -0.488327
v -22.736984 -1.000000 -20.488327
v -22.736984 1.000000 -20.488327
v -22.736984 -1.000000 -22.488327
v -22.736984 1.000000 -22.488327
v -24.736984 -1.000000 -20.488327
v -24.736984 1.000000 -20.488327
v -24.736984 -1.000000 -22.488327
v -24.736984 1.000000 -22.488327
v -12.736983 -1.000000 -20.488327
v -12.736983 1.000000 -20.488327
v -12.736983 -1.000000 -22.488327
v -12.736983 1.000000 -22.488327
v -14.280009 1.000000 -22.488327
v -14.280009 -1.000000 -22.488327
v -14.280009 -1.000000 -20.488327
v -14.280009 1.000000 -20.488327
v -2.736983 -1.000000 -20.488327
v -2.736983 1.000000 -20.488327
v -2.736983 -1.000000 -22.488327
v -2.736983 1.000000 -22.488327
v -4.265918 -1.000000 -20.488327
v -4.265918 1.000000 -20.488327
v -4.265918 1.000000 -22.488327
v -4.265918 -1.000000 -22.488327
v -2.736983 -1.000004 -10.488327
v -2.736983 0.999996 -10.488327
v -4.265918 -1.000004 -10.488327
v -4.265918 0.999996 -10.488327
v -2.736983 -1.000003 -12.526031
v -4.265918 -1.000003 -12.526031
v -4.265918 0.999997 -12.526031
v -2.736983 0.999997 -12.526031
v 2.263017 -1.000004 -10.488327
v 2.263017 0.999996 -10.488327
v 2.263017 -1.000003 -12.526031
v 2.263017 0.999997 -12.526031
v 12.263017 -1.000000 -20.488327
v 12.263017 1.000000 -20.488327
v 12.263017 -1.000000 -22.488327
v 12.263017 1.000000 -22.488327
v -22.736984 0.999993 -0.488327
v -24.736984 0.999993 -0.488327
v -22.736984 -1.000007 -0.488327
v -24.736984 -1.000007 -0.488327
v -21.726772 0.999999 -18.091152
v -21.726772 -1.000001 -18.091152
v -21.726772 0.999998 -16.091152
v -21.726772 -1.000002 -16.091152
v -19.726772 0.999999 -18.091152
v -19.726772 -1.000001 -18.091152
v -19.726772 0.999998 -16.091152
v -19.726772 -1.000002 -16.091152
v -16.088982 0.999998 -16.146858
v -16.088982 -1.000002 -16.146860
v -16.088982 0.999998 -14.146858
v -16.088982 -1.000002 -14.146859
v -14.088981 0.999998 -16.146858
v -14.088981 -1.000002 -16.146860
v -14.088981 0.999998 -14.146858
v -14.088981 -1.000002 -14.146859
v -16.088982 -1.000003 -12.146858
v -16.088982 0.999997 -12.146858
v -14.088981 0.999997 -12.146858
v -14.088981 -1.000003 -12.146858
v -21.726772 0.999996 -9.416451
v -21.726772 -1.000004 -9.416451
v -21.726772 0.999995 -7.416451
v -21.726772 -1.000005 -7.416451
v -19.726772 0.999996 -9.416451
v -19.726772 -1.000004 -9.416451
v -19.726772 0.999995 -7.416451
v -19.726772 -1.000005 -7.416451
v -9.617293 0.999998 -14.384401
v -9.617293 -1.000002 -14.384401
v -9.617293 0.999997 -12.384401
v -9.617293 -1.000003 -12.384401
v -7.617293 0.999998 -14.384401
v -7.617293 -1.000002 -14.384401
v -7.617293 0.999997 -12.384401
v -7.617293 -1.000003 -12.384401
v 6.397820 0.999997 -12.481331
v 6.397820 -1.000003 -12.481331
v 6.397820 0.999996 -10.481331
v 6.397820 -1.000004 -10.481331
v 8.397820 0.999997 -12.481331
v 8.397820 -1.000003 -12.481331
v 8.397820 0.999996 -10.481331
v 8.397820 -1.000004 -10.481331
v 13.397820 -1.000004 -10.481331
v 13.397820 0.999996 -10.481331
v 13.397820 0.999997 -12.481331
v 13.397820 -1.000003 -12.481331
v 12.063260 -1.000003 -12.481331
v 12.063260 -1.000004 -10.481331
v 12.063260 0.999996 -10.481331
v 12.063260 0.999997 -12.481331
v 13.397820 -1.000000 -22.481331
v 13.397820 1.000000 -22.481331
v 12.063260 -1.000000 -22.481331
v 12.063260 1.000000 -22.481331
v 13.397820 1.000000 -20.488327
v 12.063260 1.000000 -20.488327
v 13.397820 -1.000000 -20.488327
v 12.063260 -1.000000 -20.488327
v 23.397820 -1.000000 -22.481331
v 23.397820 1.000000 -22.481331
v 23.397820 1.000000 -20.488327
v 23.397820 -1.000000 -20.488327
v 20.777340 -1.000000 -22.481331
v 20.777340 -1.000000 -20.488327
v 20.777340 1.000000 -20.488327
v 20.777340 1.000000 -22.481331
v 23.397820 -1.000004 -10.488327
v 23.397820 0.999996 -10.488327
v 20.777340 0.999996 -10.488327
v 20.777340 -1.000004 -10.488327
v 23.397820 -1.000007 -0.488327
v 23.397820 0.999993 -0.488327
v 20.777340 0.999993 -0.488327
v 20.777340 -1.000007 -0.488327
vt 0.375000 0.000000
vt 0.625000 0.000000
vt 0.625000 0.250000
vt 0.375000 0.250000
vt 0.625000 0.500000
vt 0.375000 0.500000
vt 0.375000 0.500000
vt 0.625000 0.500000
vt 0.625000 0.750000
vt 0.375000 0.750000
vt 0.625000 1.000000
vt 0.375000 1.000000
vt 0.125000 0.500000
vt 0.125000 0.750000
vt 0.875000 0.500000
vt 0.875000 0.750000
vt 0.375000 0.250000
vt 0.625000 0.250000
vt 0.125000 0.500000
vt 0.875000 0.500000
vt 0.625000 0.500000
vt 0.875000 0.500000
vt 0.875000 0.750000
vt 0.625000 0.750000
vt 0.375000 0.750000
vt 0.625000 1.000000
vt 0.375000 1.000000
vt 0.375000 0.000000
vt 0.625000 0.000000
vt 0.625000 0.250000
vt 0.375000 0.250000
vt 0.125000 0.500000
vt 0.375000 0.500000
vt 0.125000 0.750000
vt 0.625000 0.750000
vt 0.375000 0.750000
vt 0.375000 0.750000
vt 0.625000 0.750000
vt 0.375000 0.500000
vt 0.625000 0.500000
vt 0.625000 0.500000
vt 0.625000 0.500000
vt 0.625000 0.500000
vt 0.625000 0.500000
vt 0.375000 0.500000
vt 0.625000 0.500000
vt 0.625000 0.500000
vt 0.375000 0.500000
vt 0.625000 0.500000
vt 0.625000 0.750000
vt 0.625000 0.750000
vt 0.625000 0.500000
vt 0.375000 0.750000
vt 0.375000 0.500000
vt 0.375000 0.500000
vt 0.375000 0.750000
vt 0.625000 0.750000
vt 0.625000 0.500000
vt 0.375000 0.500000
vt 0.375000 0.500000
vt 0.375000 0.500000
vt 0.625000 0.500000
vt 0.625000 0.500000
vt 0.375000 0.500000
vt 0.375000 0.500000
vt 0.375000 0.500000
vt 0.375000 0.500000
vt 0.375000 0.750000
vt 0.375000 0.250000
vt 0.625000 0.250000
vt 0.125000 0.500000
vt 0.875000 0.500000
vt 0.375000 0.000000
vt 0.625000 0.000000
vt 0.625000 0.250000
vt 0.375000 0.250000
vt 0.625000 0.500000
vt 0.375000 0.500000
vt 0.625000 0.750000
vt 0.375000 0.750000
vt 0.625000 1.000000
vt 0.375000 1.000000
vt 0.125000 0.500000
vt 0.125000 0.750000
vt 0.875000 0.500000
vt 0.875000 0.750000
vt 0.375000 0.000000
vt 0.625000 0.000000
vt 0.625000 0.250000
vt 0.375000 0.250000
vt 0.625000 0.500000
vt 0.375000 0.500000
vt 0.375000 0.500000
vt 0.625000 0.500000
vt 0.625000 0.750000
vt 0.375000 0.750000
vt 0.625000 1.000000
vt 0.375000 1.000000
vt 0.125000 0.500000
vt 0.125000 0.750000
vt 0.875000 0.500000
vt 0.875000 0.750000
vt 0.375000 0.250000
vt 0.625000 0.250000
vt 0.125000 0.500000
vt 0.875000 0.500000
vt 0.375000 0.000000
vt 0.625000 0.000000
vt 0.625000 0.250000
vt 0.375000 0.250000
vt 0.625000 0.500000
vt 0.375000 0.500000
vt 0.625000 0.750000
vt 0.375000 0.750000
vt 0.625000 1.000000
vt 0.375000 1.000000
vt 0.125000 0.500000
vt 0.125000 0.750000
vt 0.875000 0.500000
vt 0.875000 0.750000
vt 0.375000 0.000000
vt 0.625000 0.000000
vt 0.625000 0.250000
vt 0.375000 0.250000
vt 0.625000 0.500000
vt 0.375000 0.500000
vt 0.625000 0.750000
vt 0.375000 0.750000
vt 0.625000 1.000000
vt 0.375000 1.000000
vt 0.125000 0.500000
vt 0.125000 0.750000
vt 0.875000 0.500000
vt 0.875000 0.750000
vt 0.375000 0.000000
vt 0.625000 0.000000
vt 0.625000 0.250000
vt 0.375000 0.250000
vt 0.625000 0.500000
vt 0.375000 0.500000
vt 0.625000 0.500000
vt 0.625000 0.750000
vt 0.625000 0.750000
vt 0.625000 0.500000
vt 0.375000 0.750000
vt 0.625000 0.750000
vt 0.625000 1.000000
vt 0.375000 1.000000
vt 0.125000 0.500000
vt 0.125000 0.750000
vt 0.875000 0.500000
vt 0.875000 0.750000
vt 0.375000 0.500000
vt 0.375000 0.750000
vt 0.375000 0.500000
vt 0.375000 0.750000
vt 0.375000 0.750000
vt 0.375000 0.750000
vt 0.375000 0.750000
vt 0.375000 0.750000
vt 0.625000 0.750000
vt 0.625000 0.750000
vt 0.625000 0.750000
vt 0.625000 0.750000
vt 0.625000 0.750000
vt 0.625000 0.750000
vt 0.625000 0.750000
vt 0.625000 0.750000
vt 0.375000 0.750000
vt 0.375000 0.750000
vt 0.375000 0.750000
vt 0.375000 0.750000
vt 0.375000 0.750000
vt 0.625000 0.750000
vt 0.625000 0.750000
vt 0.625000 0.750000
vt 0.625000 0.750000
vt 0.375000 0.750000
vt 0.375000 0.750000
vt 0.375000 0.750000
vt 0.625000 0.500000
vt 0.875000 0.500000
vt 0.875000 0.750000
vt 0.625000 0.750000
vt 0.375000 0.750000
vt 0.625000 1.000000
vt 0.375000 1.000000
vt 0.375000 0.000000
vt 0.625000 0.000000
vt 0.625000 0.250000
vt 0.375000 0.250000
vt 0.125000 0.500000
vt 0.375000 0.500000
vt 0.125000 0.750000
vt 0.625000 0.750000
vt 0.375000 0.750000
vt 0.375000 0.750000
vt 0.625000 0.750000
vt 0.375000 0.500000
vt 0.625000 0.500000
vt 0.625000 0.500000
vt 0.625000 0.500000
vt 0.625000 0.500000
vt 0.625000 0.500000
vt 0.375000 0.500000
vt 0.625000 0.500000
vt 0.625000 0.500000
vt 0.375000 0.500000
vt 0.625000 0.500000
vt 0.625000 0.750000
vt 0.625000 0.750000
vt 0.625000 0.500000
vt 0.375000 0.750000
vt 0.375000 0.500000
vt 0.375000 0.500000
vt 0.375000 0.750000
vt 0.625000 0.750000
vt 0.625000 0.500000
vt 0.375000 0.500000
vt 0.375000 0.500000
vt 0.375000 0.500000
vt 0.625000 0.500000
vt 0.625000 0.500000
vt 0.375000 0.500000
vt 0.375000 0.500000
vt 0.375000 0.500000
vt 0.375000 0.500000
vt 0.375000 0.750000
vt 0.375000 0.250000
vt 0.625000 0.250000
vt 0.125000 0.500000
vt 0.875000 0.500000
vt 0.375000 0.000000
vt 0.625000 0.000000
vt 0.625000 0.250000
vt 0.375000 0.250000
vt 0.625000 0.500000
vt 0.375000 0.500000
vt 0.625000 0.750000
vt 0.375000 0.750000
vt 0.625000 1.000000
vt 0.375000 1.000000
vt 0.125000 0.500000
vt 0.125000 0.750000
vt 0.875000 0.500000
vt 0.875000 0.750000
vt 0.375000 0.000000
vt 0.625000 0.000000
vt 0.625000 0.250000
vt 0.375000 0.250000
vt 0.625000 0.500000
vt 0.375000 0.500000
vt 0.375000 0.500000
vt 0.625000 0.500000
vt 0.625000 0.750000
vt 0.375000 0.750000
vt 0.625000 1.000000
vt 0.375000 1.000000
vt 0.125000 0.500000
vt 0.125000 0.750000
vt 0.875000 0.500000
vt 0.875000 0.750000
vt 0.375000 0.250000
vt 0.625000 0.250000
vt 0.125000 0.500000
vt 0.875000 0.500000
vt 0.375000 0.000000
vt 0.625000 0.000000
vt 0.625000 0.250000
vt 0.375000 0.250000
vt 0.625000 0.500000
vt 0.375000 0.500000
vt 0.625000 0.750000
vt 0.375000 0.750000
vt 0.625000 1.000000
vt 0.375000 1.000000
vt 0.125000 0.500000
vt 0.125000 0.750000
vt 0.875000 0.500000
vt 0.875000 0.750000
vt 0.375000 0.000000
vt 0.625000 0.000000
vt 0.625000 0.250000
vt 0.375000 0.250000
vt 0.625000 0.500000
vt 0.375000 0.500000
vt 0.625000 0.750000
vt 0.375000 0.750000
vt 0.625000 1.000000
vt 0.375000 1.000000
vt 0.125000 0.500000
vt 0.125000 0.750000
vt 0.875000 0.500000
vt 0.875000 0.750000
vt 0.375000 0.000000
vt 0.625000 0.000000
vt 0.625000 0.250000
vt 0.375000 0.250000
vt 0.625000 0.500000
vt 0.375000 0.500000
vt 0.625000 0.500000
vt 0.625000 0.750000
vt 0.625000 0.750000
vt 0.625000 0.500000
vt 0.375000 0.750000
vt 0.625000 0.750000
vt 0.625000 1.000000
vt 0.375000 1.000000
vt 0.125000 0.500000
vt 0.125000 0.750000
vt 0.875000 0.500000
vt 0.875000 0.750000
vt 0.375000 0.500000
vt 0.375000 0.750000
vt 0.375000 0.500000
vt 0.375000 0.750000
vt 0.375000 0.750000
vt 0.375000 0.750000
vt 0.375000 0.750000
vt 0.375000 0.750000
vt 0.625000 0.750000
vt 0.625000 0.750000
vt 0.625000 0.750000
vt 0.625000 0.750000
vt 0.625000 0.750000
vt 0.625000 0.750000
vt 0.625000 0.750000
vt 0.625000 0.750000
vt 0.375000 0.750000
vt 0.375000 0.750000
vt 0.375000 0.750000
vt 0.375000 0.750000
vt 0.375000 0.750000
vt 0.625000 0.750000
vt 0.625000 0.750000
vt 0.625000 0.750000
vt 0.625000 0.750000
vt 0.375000 0.750000
vt 0.375000 0.750000
vt 0.375000 0.750000
vn -1.0000 0.0000 0.0000
vn 1.0000 0.0000 0.0000
vn 0.0000 0.0000 1.0000
vn 0.0000 -1.0000 0.0000
vn 0.0000 1.0000 0.0000
vn 0.0000 0.0000 -1.0000
usemtl Material
s off
f 1/1/1 2/2/1 4/3/1 3/4/1
f 8/5/2 7/6/2 11/7/2 12/8/2
f 7/6/2 8/5/2 6/9/2 5/10/2
f 5/10/3 6/9/3 2/11/3 1/12/3
f 3/13/4 7/6/4 5/10/4 1/14/4
f 8/5/5 4/15/5 2/16/5 6/9/5
f 10/17/6 9/18/6 12/8/6 11/7/6
f 7/6/4 3/13/4 10/19/4 11/7/4
f 4/15/5 8/5/5 12/8/5 9/20/5
f 3/4/1 4/3/1 9/18/1 10/17/1
f 13/21/5 17/22/5 19/23/5 15/24/5
f 16/25/3 15/24/3 19/26/3 20/27/3
f 20/28/1 19/29/1 17/30/1 18/31/1
f 18/32/4 14/33/4 16/25/4 20/34/4
f 26/35/3 25/36/3 24/37/3 23/38/3
f 13/21/2 14/33/2 53/39/2 55/40/2
f 42/41/5 41/42/5 37/43/5 39/44/5
f 28/45/6 27/46/6 21/47/6 22/48/6
f 25/36/4 28/45/4 22/48/4 24/37/4
f 27/46/5 26/35/5 23/38/5 21/47/5
f 13/21/5 15/24/5 26/35/5 27/46/5
f 16/25/4 14/33/4 28/45/4 25/36/4
f 14/33/6 13/21/6 27/46/6 28/45/6
f 15/24/3 16/25/3 25/36/3 26/35/3
f 29/49/5 31/50/5 51/51/5 49/52/5
f 35/53/4 34/54/4 30/55/4 32/56/4
f 36/57/3 35/53/3 32/56/3 31/50/3
f 33/58/5 36/57/5 31/50/5 29/49/5
f 21/47/5 23/38/5 36/57/5 33/58/5
f 23/38/3 24/37/3 35/53/3 36/57/3
f 24/37/4 22/48/4 34/54/4 35/53/4
f 22/48/6 21/47/6 33/58/6 34/54/6
f 40/59/6 39/44/6 37/43/6 38/60/6
f 43/61/1 42/41/1 39/44/1 40/59/1
f 37/43/5 41/42/5 47/62/5 45/63/5
f 44/64/4 43/61/4 40/59/4 38/60/4
f 30/55/4 34/54/4 43/61/4 44/64/4
f 29/49/2 30/55/2 44/64/2 41/42/2
f 34/54/1 33/58/1 42/41/1 43/61/1
f 33/58/5 29/49/5 41/42/5 42/41/5
f 47/62/2 48/65/2 46/66/2 45/63/2
f 41/42/3 44/64/3 48/65/3 47/62/3
f 38/60/6 37/43/6 45/63/6 46/66/6
f 44/64/4 38/60/4 46/66/4 48/65/4
f 50/67/2 49/52/2 51/51/2 52/68/2
f 30/55/6 29/49/6 49/52/6 50/67/6
f 32/56/4 30/55/4 50/67/4 52/68/4
f 31/50/3 32/56/3 52/68/3 51/51/3
f 54/69/6 56/70/6 55/40/6 53/39/6
f 18/31/1 17/30/1 56/70/1 54/69/1
f 14/33/4 18/32/4 54/71/4 53/39/4
f 17/22/5 13/21/5 55/40/5 56/72/5
f 57/73/1 58/74/1 60/75/1 59/76/1
f 59/76/6 60/75/6 64/77/6 63/78/6
f 63/78/2 64/77/2 62/79/2 61/80/2
f 61/80/3 62/79/3 58/81/3 57/82/3
f 59/83/4 63/78/4 61/80/4 57/84/4
f 64/77/5 60/85/5 58/86/5 62/79/5
f 65/87/1 66/88/1 68/89/1 67/90/1
f 72/91/2 71/92/2 75/93/2 76/94/2
f 71/92/2 72/91/2 70/95/2 69/96/2
f 69/96/3 70/95/3 66/97/3 65/98/3
f 67/99/4 71/92/4 69/96/4 65/100/4
f 72/91/5 68/101/5 66/102/5 70/95/5
f 74/103/6 73/104/6 76/94/6 75/93/6
f 71/92/4 67/99/4 74/105/4 75/93/4
f 68/101/5 72/91/5 76/94/5 73/106/5
f 67/90/1 68/89/1 73/104/1 74/103/1
f 77/107/1 78/108/1 80/109/1 79/110/1
f 79/110/6 80/109/6 84/111/6 83/112/6
f 83/112/2 84/111/2 82/113/2 81/114/2
f 81/114/3 82/113/3 78/115/3 77/116/3
f 79/117/4 83/112/4 81/114/4 77/118/4
f 84/111/5 80/119/5 78/120/5 82/113/5
f 85/121/1 86/122/1 88/123/1 87/124/1
f 87/124/6 88/123/6 92/125/6 91/126/6
f 91/126/2 92/125/2 90/127/2 89/128/2
f 89/128/3 90/127/3 86/129/3 85/130/3
f 87/131/4 91/126/4 89/128/4 85/132/4
f 92/125/5 88/133/5 86/134/5 90/127/5
f 93/135/1 94/136/1 96/137/1 95/138/1
f 95/138/6 96/137/6 100/139/6 99/140/6
f 106/141/5 105/142/5 104/143/5 101/144/5
f 97/145/3 98/146/3 94/147/3 93/148/3
f 95/149/4 99/140/4 97/145/4 93/150/4
f 100/139/5 96/151/5 94/152/5 98/146/5
f 102/153/2 101/144/2 104/143/2 103/154/2
f 107/155/6 106/141/6 101/144/6 102/153/6
f 114/156/4 113/157/4 110/158/4 112/159/4
f 108/160/4 107/155/4 102/153/4 103/154/4
f 97/145/4 99/140/4 107/155/4 108/160/4
f 98/146/3 97/145/3 108/160/3 105/142/3
f 99/140/6 100/139/6 106/141/6 107/155/6
f 100/139/5 98/146/5 105/142/5 106/141/5
f 111/161/3 112/159/3 110/158/3 109/162/3
f 122/163/5 121/164/5 117/165/5 120/166/5
f 115/167/5 116/168/5 111/161/5 109/162/5
f 116/168/1 114/156/1 112/159/1 111/161/1
f 105/142/1 108/160/1 114/156/1 116/168/1
f 104/143/5 105/142/5 116/168/5 115/167/5
f 103/154/2 104/143/2 115/167/2 113/157/2
f 108/160/4 103/154/4 113/157/4 114/156/4
f 119/169/2 120/166/2 117/165/2 118/170/2
f 124/171/4 123/172/4 119/169/4 118/170/4
f 121/164/3 124/171/3 118/170/3 117/165/3
f 120/166/2 119/169/2 126/173/2 125/174/2
f 113/157/6 115/167/6 122/163/6 123/172/6
f 109/162/3 110/158/3 124/171/3 121/164/3
f 110/158/4 113/157/4 123/172/4 124/171/4
f 115/167/5 109/162/5 121/164/5 122/163/5
f 128/175/5 125/174/5 129/176/5 132/177/5
f 123/172/1 122/163/1 128/175/1 127/178/1
f 119/169/4 123/172/4 127/178/4 126/173/4
f 122/163/5 120/166/5 125/174/5 128/175/5
f 131/179/6 132/177/6 129/176/6 130/180/6
f 125/174/2 126/173/2 130/180/2 129/176/2
f 127/178/1 128/175/1 132/177/1 131/179/1
f 126/173/4 127/178/4 131/179/4 130/180/4
usemtl Material.001
f 133/181/4 137/182/4 139/183/4 135/184/4
f 136/185/6 135/184/6 139/186/6 140/187/6
f 140/188/1 139/189/1 137/190/1 138/191/1
f 138/192/5 134/193/5 136/185/5 140/194/5
f 146/195/6 145/196/6 144/197/6 143/198/6
f 133/181/2 134/193/2 173/199/2 175/200/2
f 162/201/4 161/202/4 157/203/4 159/204/4
f 148/205/3 147/206/3 141/207/3 142/208/3
f 145/196/5 148/205/5 142/208/5 144/197/5
f 147/206/4 146/195/4 143/198/4 141/207/4
f 133/181/4 135/184/4 146/195/4 147/206/4
f 136/185/5 134/193/5 148/205/5 145/196/5
f 134/193/3 133/181/3 147/206/3 148/205/3
f 135/184/6 136/185/6 145/196/6 146/195/6
f 149/209/4 151/210/4 171/211/4 169/212/4
f 155/213/5 154/214/5 150/215/5 152/216/5
f 156/217/6 155/213/6 152/216/6 151/210/6
f 153/218/4 156/217/4 151/210/4 149/209/4
f 141/207/4 143/198/4 156/217/4 153/218/4
f 143/198/6 144/197/6 155/213/6 156/217/6
f 144/197/5 142/208/5 154/214/5 155/213/5
f 142/208/3 141/207/3 153/218/3 154/214/3
f 160/219/3 159/204/3 157/203/3 158/220/3
f 163/221/1 162/201/1 159/204/1 160/219/1
f 157/203/4 161/202/4 167/222/4 165/223/4
f 164/224/5 163/221/5 160/219/5 158/220/5
f 150/215/5 154/214/5 163/221/5 164/224/5
f 149/209/2 150/215/2 164/224/2 161/202/2
f 154/214/1 153/218/1 162/201/1 163/221/1
f 153/218/4 149/209/4 161/202/4 162/201/4
f 167/222/2 168/225/2 166/226/2 165/223/2
f 161/202/6 164/224/6 168/225/6 167/222/6
f 158/220/3 157/203/3 165/223/3 166/226/3
f 164/224/5 158/220/5 166/226/5 168/225/5
f 170/227/2 169/212/2 171/211/2 172/228/2
f 150/215/3 149/209/3 169/212/3 170/227/3
f 152/216/5 150/215/5 170/227/5 172/228/5
f 151/210/6 152/216/6 172/228/6 171/211/6
f 174/229/3 176/230/3 175/200/3 173/199/3
f 138/191/1 137/190/1 176/230/1 174/229/1
f 134/193/5 138/192/5 174/231/5 173/199/5
f 137/182/4 133/181/4 175/200/4 176/232/4
f 177/233/1 178/234/1 180/235/1 179/236/1
f 179/236/3 180/235/3 184/237/3 183/238/3
f 183/238/2 184/237/2 182/239/2 181/240/2
f 181/240/6 182/239/6 178/241/6 177/242/6
f 179/243/5 183/238/5 181/240/5 177/244/5
f 184/237/4 180/245/4 178/246/4 182/239/4
f 185/247/1 186/248/1 188/249/1 187/250/1
f 192/251/2 191/252/2 195/253/2 196/254/2
f 191/252/2 192/251/2 190/255/2 189/256/2
f 189/256/6 190/255/6 186/257/6 185/258/6
f 187/259/5 191/252/5 189/256/5 185/260/5
f 192/251/4 188/261/4 186/262/4 190/255/4
f 194/263/3 193/264/3 196/254/3 195/253/3
f 191/252/5 187/259/5 194/265/5 195/253/5
f 188/261/4 192/251/4 196/254/4 193/266/4
f 187/250/1 188/249/1 193/264/1 194/263/1
f 197/267/1 198/268/1 200/269/1 199/270/1
f 199/270/3 200/269/3 204/271/3 203/272/3
f 203/272/2 204/271/2 202/273/2 201/274/2
f 201/274/6 202/273/6 198/275/6 197/276/6
f 199/277/5 203/272/5 201/274/5 197/278/5
f 204/271/4 200/279/4 198/280/4 202/273/4
f 205/281/1 206/282/1 208/283/1 207/284/1
f 207/284/3 208/283/3 212/285/3 211/286/3
f 211/286/2 212/285/2 210/287/2 209/288/2
f 209/288/6 210/287/6 206/289/6 205/290/6
f 207/291/5 211/286/5 209/288/5 205/292/5
f 212/285/4 208/293/4 206/294/4 210/287/4
f 213/295/1 214/296/1 216/297/1 215/298/1
f 215/298/3 216/297/3 220/299/3 219/300/3
f 226/301/4 225/302/4 224/303/4 221/304/4
f 217/305/6 218/306/6 214/307/6 213/308/6
f 215/309/5 219/300/5 217/305/5 213/310/5
f 220/299/4 216/311/4 214/312/4 218/306/4
f 222/313/2 221/304/2 224/303/2 223/314/2
f 227/315/3 226/301/3 221/304/3 222/313/3
f 234/316/5 233/317/5 230/318/5 232/319/5
f 228/320/5 227/315/5 222/313/5 223/314/5
f 217/305/5 219/300/5 227/315/5 228/320/5
f 218/306/6 217/305/6 228/320/6 225/302/6
f 219/300/3 220/299/3 226/301/3 227/315/3
f 220/299/4 218/306/4 225/302/4 226/301/4
f 231/321/6 232/319/6 230/318/6 229/322/6
f 242/323/4 241/324/4 237/325/4 240/326/4
f 235/327/4 236/328/4 231/321/4 229/322/4
f 236/328/1 234/316/1 232/319/1 231/321/1
f 225/302/1 228/320/1 234/316/1 236/328/1
f 224/303/4 225/302/4 236/328/4 235/327/4
f 223/314/2 224/303/2 235/327/2 233/317/2
f 228/320/5 223/314/5 233/317/5 234/316/5
f 239/329/2 240/326/2 237/325/2 238/330/2
f 244/331/5 243/332/5 239/329/5 238/330/5
f 241/324/6 244/331/6 238/330/6 237/325/6
f 240/326/2 239/329/2 246/333/2 245/334/2
f 233/317/3 235/327/3 242/323/3 243/332/3
f 229/322/6 230/318/6 244/331/6 241/324/6
f 230/318/5 233/317/5 243/332/5 244/331/5
f 235/327/4 229/322/4 241/324/4 242/323/4
f 248/335/4 245/334/4 249/336/4 252/337/4
f 243/332/1 242/323/1 248/335/1 247/338/1
f 239/329/5 243/332/5 247/338/5 246/333/5
f 242/323/4 240/326/4 245/334/4 248/335/4
f 251/339/3 252/337/3 249/336/3 250/340/3
f 245/334/2 246/333/2 250/340/2 249/336/2
f 247/338/1 248/335/1 252/337/1 251/339/1
f 246/333/5 247/338/5 251/339/5 250/340/5
